<?xml version="1.0" encoding="UTF-8"?> <svg xmlns="http://www.w3.org/2000/svg" width="253" height="196" viewBox="0 0 253 196" fill="none"><rect width="253" height="196" fill="#A50064"></rect><g clip-path="url(#clip0_4004_7042)"><path d="M154.818 94.4004C166.578 94.4004 175.818 85.1604 175.818 73.4004C175.818 61.6404 166.578 52.4004 154.818 52.4004C143.058 52.4004 133.818 61.6404 133.818 73.4004C133.818 85.1604 143.058 94.4004 154.818 94.4004ZM154.818 63.9204C160.098 63.9204 163.818 68.1204 163.818 73.4004C163.818 78.6804 160.098 82.8804 154.818 82.8804C149.538 82.8804 145.818 78.6804 145.818 73.4004C145.818 68.1204 149.538 63.9204 154.818 63.9204Z" fill="white"></path><path d="M111.739 52.4004C108.344 52.4004 104.887 53.664 102.282 55.548C99.8677 53.664 96.6877 52.4004 93.3793 52.4004C84.6193 52.4004 77.7793 57.9204 77.7793 68.6004V93.8004H89.7793V67.5204C89.7793 65.4804 91.2193 64.0404 93.1393 64.0404C95.0593 64.0404 96.4993 65.4804 96.4993 67.5204V93.8004H108.499V67.5204C108.499 65.4804 109.939 64.0404 111.859 64.0404C113.779 64.0404 115.219 65.4804 115.219 67.5204V93.8004H127.219V68.6004C127.219 57.9204 120.259 52.4004 111.739 52.4004Z" fill="white"></path><path d="M154.818 101.6C143.058 101.6 133.818 110.84 133.818 122.6C133.818 134.36 143.058 143.6 154.818 143.6C166.578 143.6 175.818 134.36 175.818 122.6C175.818 110.84 166.578 101.6 154.818 101.6ZM154.818 132.08C149.538 132.08 145.818 127.88 145.818 122.6C145.818 117.32 149.538 113.12 154.818 113.12C160.098 113.12 163.818 117.32 163.818 122.6C163.818 127.88 160.098 132.08 154.818 132.08Z" fill="white"></path><path d="M111.739 101.6C108.344 101.6 104.887 102.863 102.282 104.747C99.8677 102.863 96.6877 101.6 93.3793 101.6C84.6193 101.6 77.7793 107.12 77.7793 117.8V143H89.7793V116.72C89.7793 114.68 91.2193 113.24 93.1393 113.24C95.0593 113.24 96.4993 114.68 96.4993 116.72V143H108.499V116.72C108.499 114.68 109.939 113.24 111.859 113.24C113.779 113.24 115.219 114.68 115.219 116.72V143H127.219V117.8C127.219 107.12 120.259 101.6 111.739 101.6Z" fill="white"></path></g><defs><clipPath id="clip0_4004_7042"><rect width="98.04" height="91.2" fill="white" transform="translate(77.7793 52.4004)"></rect></clipPath></defs></svg> 