<?xml version="1.0" encoding="UTF-8"?>
<svg version="1.1" xmlns="http://www.w3.org/2000/svg" width="866" height="650">
<path d="M0 0 C285.78 0 571.56 0 866 0 C866 214.5 866 429 866 650 C580.22 650 294.44 650 0 650 C0 435.5 0 221 0 0 Z " fill="#FEFEFE" transform="translate(0,0)"/>
<path d="M0 0 C0.8415967 -0.00327219 1.6831934 -0.00654439 2.55029303 -0.00991574 C3.93238578 -0.0076903 3.93238578 -0.0076903 5.3423996 -0.00541991 C6.32774167 -0.00777214 7.31308375 -0.01012437 8.32828468 -0.01254788 C11.65620208 -0.01924676 14.98408051 -0.01877939 18.31200409 -0.01836985 C20.71166322 -0.02166793 23.11132179 -0.02539337 25.51097965 -0.02951133 C31.4312813 -0.03849223 37.3515759 -0.04276002 43.2718829 -0.0450303 C50.36157904 -0.04799141 57.45126525 -0.05668833 64.54095618 -0.06544458 C81.67871841 -0.08629435 98.81648238 -0.09675984 115.95425434 -0.10557419 C124.06141546 -0.10978017 132.16857584 -0.11500225 140.27573634 -0.12025872 C168.02611022 -0.13814989 195.77648431 -0.15314577 223.5268631 -0.16057891 C225.26924505 -0.16105366 227.011627 -0.16152955 228.75400895 -0.16200657 C230.05011067 -0.16236113 230.05011067 -0.16236113 231.37239626 -0.16272286 C235.75021476 -0.16392406 240.12803325 -0.16513951 244.50585175 -0.16636485 C245.37464438 -0.166605 246.24343702 -0.16684515 247.1385567 -0.16709258 C275.30452222 -0.17498484 303.47044562 -0.19841468 331.63639274 -0.23092079 C361.41299918 -0.26522302 391.18958098 -0.28493044 420.9662075 -0.28822315 C424.2354444 -0.28864069 427.50468127 -0.28912025 430.77391815 -0.28964633 C431.98139063 -0.28983111 431.98139063 -0.28983111 433.21325649 -0.29001964 C446.16512404 -0.29235124 459.11694265 -0.30800905 472.06879275 -0.32848817 C485.08981897 -0.34874988 498.11078645 -0.35422185 511.13182551 -0.34471754 C518.86565261 -0.33950383 526.59928408 -0.34537382 534.33308301 -0.36725221 C540.11132578 -0.38236173 545.88939718 -0.37651204 551.66763592 -0.36258169 C554.0028456 -0.36019825 556.3380741 -0.36456715 558.67325497 -0.37641034 C587.18920287 -0.51206258 587.18920287 -0.51206258 598.64598846 10.61317617 C603.94305251 16.86099529 606.89942852 23.86177395 606.91302204 32.02700216 C606.91747989 33.26628044 606.92193773 34.50555872 606.92653066 35.78239089 C606.92644136 37.16515429 606.9262515 38.54791768 606.92597198 39.93068105 C606.92927062 41.39386052 606.93299619 42.85703908 606.93711346 44.32021648 C606.94714198 48.35116333 606.95085164 52.38209529 606.95350277 56.41305286 C606.95740341 60.75681583 606.96698203 65.10056697 606.97571564 69.44432241 C606.99548877 79.9408048 607.00554817 90.43728818 607.01444343 100.93378454 C607.01882568 105.87649153 607.02419272 110.81919745 607.0294323 115.76190358 C607.04644682 132.19299009 607.06094037 148.62407592 607.06818104 165.05516988 C607.07009095 169.32027355 607.07201128 173.58537721 607.07396698 177.85048085 C607.07445072 178.91055779 607.07493446 179.97063473 607.07543286 181.06283522 C607.08373079 198.23034093 607.10906272 215.39777691 607.14154766 232.56525218 C607.17462629 250.19020509 607.1926306 267.81512258 607.19582528 285.44010669 C607.19798983 295.33602102 607.20673022 305.23183372 607.23228645 315.12771779 C607.25400457 323.55693612 607.26203846 331.98602814 607.25231967 340.41527128 C607.24777795 344.71436932 607.24965359 349.01320681 607.26908112 353.31226903 C607.28673525 357.25304055 607.28569708 361.19336189 607.27018382 365.13413835 C607.26781112 366.55483267 607.27211377 367.97555835 607.28401247 369.39620483 C607.38392309 382.11987485 605.25510991 391.64062211 596.29051971 400.96083242 C590.38324577 406.05964585 583.38669435 409.24963028 575.54247653 409.25760233 C574.69750055 409.26087453 573.85252457 409.26414672 572.98194325 409.26751807 C572.0567677 409.26603445 571.13159214 409.26455083 570.17838097 409.26302224 C569.18906295 409.26537447 568.19974493 409.2677267 567.18044758 409.27015021 C563.83902479 409.27684923 560.4976408 409.27638172 557.15621185 409.27597219 C554.74687774 409.27927024 552.33754418 409.28299569 549.92821133 409.28711367 C543.98404281 409.2960946 538.03988689 409.30036235 532.09571336 409.30263263 C524.97754996 409.3055937 517.85939646 409.31429054 510.74123826 409.32304691 C493.5355189 409.34389599 476.32979783 409.35436175 459.12406879 409.36317652 C450.98567712 409.36738228 442.84728619 409.37260435 434.70889514 409.37786105 C406.85420234 409.39575143 378.99950932 409.41074788 351.14481163 409.41818124 C349.3959263 409.418656 347.64704097 409.41913189 345.89815564 409.4196089 C344.59721247 409.41996347 344.59721247 409.41996347 343.26998761 409.42032519 C338.87578998 409.4215264 334.48159234 409.42274185 330.08739471 409.42396718 C329.21535087 409.42420733 328.34330703 409.42444748 327.44483762 409.42469491 C299.16788902 409.43258872 270.89098234 409.45602215 242.61405205 409.48852313 C212.72312763 409.52281652 182.83222776 409.54253191 152.94128335 409.54582548 C149.66028665 409.54624303 146.37928998 409.54672259 143.0982933 409.54724866 C141.88646911 409.54743345 141.88646911 409.54743345 140.65016361 409.54762197 C127.64583053 409.54995458 114.64154614 409.56561787 101.63723042 409.58609051 C88.56694973 409.60634062 75.49672755 409.61182966 62.42643408 409.60231987 C54.66108181 409.59710178 46.89592426 409.60299685 39.13059999 409.62485455 C33.33244287 409.63994193 27.53445686 409.63412955 21.73630382 409.62018403 C19.39036265 409.61779695 17.04440283 409.62218811 14.69849025 409.63401268 C11.51008218 409.6490894 8.32265172 409.63948741 5.13426781 409.62378579 C4.22313925 409.634008 3.31201069 409.64423021 2.37327218 409.65476218 C-6.92057009 409.55484873 -14.63223162 406.52558609 -21.40088654 400.11317617 C-30.78344394 389.88498054 -31.52112617 380.16442573 -31.48862457 366.75688344 C-31.49236451 365.29279942 -31.49696739 363.82871739 -31.50235522 362.36463851 C-31.51455795 358.35443768 -31.51432799 354.34432046 -31.51196647 350.33410531 C-31.51155762 346.00407618 -31.52260385 341.6740736 -31.5320816 337.3440569 C-31.54867691 328.86610528 -31.55419046 320.38818148 -31.55530636 311.91021498 C-31.5562574 305.01832464 -31.56037048 298.12644346 -31.56670761 291.23455602 C-31.58431493 271.6876506 -31.59354712 252.14076713 -31.59204666 232.59385373 C-31.59196675 231.54062076 -31.59188684 230.48738779 -31.5918045 229.40223867 C-31.59172274 228.34771754 -31.59164098 227.29319641 -31.59155674 226.2067201 C-31.59074368 209.11321729 -31.60988788 192.01980255 -31.63808124 174.92632522 C-31.66681267 157.3678847 -31.68062143 139.80948714 -31.67889369 122.25102252 C-31.67822994 112.39602124 -31.6837156 102.54111234 -31.70524979 92.68613225 C-31.72346483 84.29652498 -31.72780614 75.90705197 -31.71423094 67.51743348 C-31.70770333 63.238682 -31.70757662 58.9601881 -31.72493744 54.68146116 C-31.74068213 50.76067017 -31.73779058 46.84034072 -31.72036918 42.91956089 C-31.71730237 41.50509372 -31.72091967 40.09059199 -31.73208933 38.6761656 C-31.82488375 26.0866204 -29.49568591 17.54369563 -20.73291779 8.33192617 C-14.8714258 3.19058638 -7.83341766 0.00799344 0 0 Z " fill="#014396" transform="translate(145.22119903564453,119.87119883298874)"/>
<path d="M0 0 C1.3126609 0.00636726 1.3126609 0.00636726 2.65184021 0.01286316 C5.41275447 0.02948894 8.1729048 0.06710909 10.93359375 0.10546875 C12.81965082 0.12053647 14.70571948 0.13422119 16.59179688 0.14648438 C21.18518458 0.17933938 25.77801022 0.2310074 30.37109375 0.29296875 C30.62689209 1.44667969 30.88269043 2.60039062 31.14624023 3.7890625 C32.1402572 8.27143377 33.13495117 12.75365455 34.12994385 17.23580933 C34.58343878 19.27869815 35.03684821 21.32160596 35.49017334 23.36453247 C37.89455575 34.19767135 40.30413053 45.02946895 42.7578125 55.8515625 C46.6072515 72.83638968 50.36941038 89.8317403 53.92071533 106.88165283 C56.80493003 120.72813811 59.83414697 134.53908873 62.93383789 148.33886719 C63.09779556 149.07004257 63.26175323 149.80121796 63.43067932 150.55455017 C63.87383672 152.5292249 64.31869587 154.50351749 64.76367188 156.4777832 C65.37109375 159.29296875 65.37109375 159.29296875 65.37109375 160.29296875 C51.84109375 160.29296875 38.31109375 160.29296875 24.37109375 160.29296875 C23.54609375 156.88984375 22.72109375 153.48671875 21.87109375 149.98046875 C21.61005859 148.91143311 21.34902344 147.84239746 21.08007812 146.7409668 C20.87705078 145.89574463 20.67402344 145.05052246 20.46484375 144.1796875 C20.25537109 143.31561279 20.04589844 142.45153809 19.83007812 141.5612793 C19.37109375 139.29296875 19.37109375 139.29296875 19.37109375 136.29296875 C0.89109375 136.29296875 -17.58890625 136.29296875 -36.62890625 136.29296875 C-37.61890625 139.59296875 -38.60890625 142.89296875 -39.62890625 146.29296875 C-40.47346674 148.6582263 -41.34428901 151.01445996 -42.25390625 153.35546875 C-42.67929687 154.46019531 -43.1046875 155.56492187 -43.54296875 156.703125 C-44.62890625 159.29296875 -44.62890625 159.29296875 -45.62890625 160.29296875 C-47.04115671 160.38584135 -48.45799559 160.41043647 -49.87329102 160.40649414 C-50.77414932 160.40641861 -51.67500763 160.40634308 -52.60316467 160.40626526 C-53.58232346 160.40110397 -54.56148224 160.39594269 -55.5703125 160.390625 C-56.56771957 160.38921005 -57.56512665 160.3877951 -58.59275818 160.38633728 C-61.79233749 160.38071989 -64.99184794 160.36816446 -68.19140625 160.35546875 C-70.3548167 160.35045599 -72.51822824 160.3458927 -74.68164062 160.34179688 C-79.9974195 160.33074482 -85.31315796 160.31398979 -90.62890625 160.29296875 C-90.05454024 154.6725486 -87.96165913 150.17821075 -85.59765625 145.12890625 C-84.77258576 143.33209659 -83.94838831 141.53488583 -83.125 139.73730469 C-82.70653809 138.82799194 -82.28807617 137.9186792 -81.85693359 136.98181152 C-79.9970438 132.90946635 -78.20076571 128.81020523 -76.41015625 124.70703125 C-75.70744473 123.10098996 -75.00472654 121.49495159 -74.30200195 119.88891602 C-73.94820465 119.0794754 -73.59440735 118.27003479 -73.22988892 117.43606567 C-66.17904962 101.30983836 -59.04469961 85.22291395 -51.83642578 69.16650391 C-48.35462699 61.40718271 -44.89227691 53.64023354 -41.4765625 45.8515625 C-41.13967911 45.08413223 -40.80279572 44.31670197 -40.45570374 43.52601624 C-38.86977937 39.91204895 -37.28758861 36.29653246 -35.7121582 32.67797852 C-32.91082311 26.26503909 -30.04152092 19.8827741 -27.01171875 13.57421875 C-26.4820752 12.46111328 -25.95243164 11.34800781 -25.40673828 10.20117188 C-22.09926147 4.79075389 -17.95363561 2.63948763 -12.05374146 0.84017944 C-8.02255664 -0.06953493 -4.11565795 -0.07691767 0 0 Z " fill="#FCFDFD" transform="translate(637.62890625,244.70703125)"/>
<path d="M0 0 C9.32800216 -0.0698124 18.65591302 -0.12296876 27.98412037 -0.15543652 C32.31657518 -0.17102712 36.64884994 -0.19214313 40.98120117 -0.22631836 C45.16983981 -0.25914946 49.35830635 -0.27690256 53.54706383 -0.28463173 C55.13729241 -0.29013295 56.72751262 -0.30087431 58.31766701 -0.31719017 C79.70065244 -0.52766979 79.70065244 -0.52766979 86.4375 5 C91.21348962 14.16990007 93.17622495 23.90343883 95 34 C95.38577055 36.07437963 95.7749614 38.14809905 96.16435242 40.22180176 C96.42053024 41.58708541 96.67567929 42.95256253 96.92976379 44.3182373 C97.93843792 49.72948514 99.03171967 55.11848668 100.1875 60.5 C101.32095315 65.7833817 102.41062185 71.06946287 103.4375 76.375 C105.33571514 85.98207774 107.68385541 95.48662511 110 105 C112.43079671 102.56920329 113.10406026 100.50480093 114.328125 97.2890625 C114.79081787 96.08266113 115.25351074 94.87625977 115.73022461 93.63330078 C116.10025101 92.65734955 116.10025101 92.65734955 116.47775269 91.66168213 C117.26370589 89.58885284 118.0559096 87.51851134 118.84985352 85.44873047 C119.98457318 82.48995255 121.11714913 79.53036662 122.24853516 76.5703125 C124.82881859 69.82810183 127.44502284 63.09986049 130.0630188 56.3722229 C130.93829817 54.12294888 131.81278653 51.87336834 132.68725586 49.6237793 C137.42001989 37.45608185 142.19936033 25.30689486 147.00170898 13.16650391 C147.26400299 12.50265182 147.526297 11.83879974 147.79653931 11.15483093 C148.50215002 9.36916334 149.20868253 7.58386008 149.9152832 5.79858398 C150.65758855 3.88342616 151.3504735 1.94857949 152 0 C167.51 0 183.02 0 199 0 C195.63102894 10.10691318 195.63102894 10.10691318 193.71484375 14.30859375 C193.27591797 15.28111084 192.83699219 16.25362793 192.38476562 17.25561523 C191.90716797 18.30563721 191.42957031 19.35565918 190.9375 20.4375 C185.49223508 32.54807739 180.21945519 44.72801891 175 56.9375 C174.61080383 57.84757812 174.22160767 58.75765625 173.82061768 59.6953125 C171.90445889 64.17657951 169.98955799 68.65838193 168.07568359 73.140625 C165.32768709 79.57566182 162.57033348 86.00667327 159.8125 92.4375 C158.87626338 94.62237925 157.94006584 96.80727524 157.00390625 98.9921875 C155.0709498 103.50263755 153.13659138 108.01248322 151.20121765 112.52189636 C149.87552765 115.61097576 148.55033943 118.70027031 147.22518921 121.7895813 C146.59230371 123.26467687 145.95919902 124.73967842 145.32583618 126.21456909 C140.49886915 137.45525185 135.74739829 148.72492906 131 160 C115.49 160 99.98 160 84 160 C69.30307486 109.8387555 69.30307486 109.8387555 62.76049805 85.23388672 C60.03959149 75.04573528 57.17999674 64.8976445 54.3125 54.75 C53.96072189 53.50482605 53.96072189 53.50482605 53.60183716 52.23449707 C53.37237396 51.42266968 53.14291077 50.61084229 52.90649414 49.77441406 C52.68097366 48.97638367 52.45545319 48.17835327 52.22309875 47.35614014 C51.77892122 45.78919478 51.33273998 44.22281586 50.88444519 42.65704346 C49.8540953 39.054743 48.84864198 35.45095384 47.91503906 31.82226562 C47.58342773 30.56607422 47.25181641 29.30988281 46.91015625 28.015625 C46.49262085 26.37255371 46.49262085 26.37255371 46.06665039 24.69628906 C44.87212033 21.67674454 43.87237094 20.65660332 41.125 19 C39.43282755 18.29331787 37.72195647 17.630645 36 17 C34.96488281 16.525625 33.92976563 16.05125 32.86328125 15.5625 C25.27215793 12.10018606 17.57679967 9.45948166 9.59375 7.078125 C6.37258096 6.11177429 3.18419423 5.0810536 0 4 C0 2.68 0 1.36 0 0 Z " fill="#FCFDFD" transform="translate(164,245)"/>
<path d="M0 0 C1.0835376 0.00346436 2.1670752 0.00692871 3.28344727 0.01049805 C15.94741916 0.18035199 27.79799966 2.25969142 39.8125 6.3125 C39.17382025 13.92760985 38.04444139 21.40869955 36.75 28.9375 C36.56373047 30.03707031 36.37746094 31.13664062 36.18554688 32.26953125 C35.73085544 34.95104486 35.27312096 37.63199973 34.8125 40.3125 C30.79680447 41.65106518 28.18647308 40.31153056 24.375 38.9375 C15.89615245 35.96131822 9.13056881 35.07467304 0.125 35 C-1.02162109 34.97099609 -2.16824219 34.94199219 -3.34960938 34.91210938 C-10.66851308 34.85764701 -15.76283202 35.8679965 -22.1875 39.3125 C-23.6725 39.8075 -23.6725 39.8075 -25.1875 40.3125 C-26.67235454 43.82215619 -26.58045821 47.57939704 -26.1875 51.3125 C-20.69740693 58.57359083 -11.96597846 62.50678625 -3.875 66.1875 C10.56182333 72.77908072 25.3357867 81.5610581 31.84765625 96.72265625 C35.99848153 108.9048458 33.9272507 121.93266108 28.6875 133.5 C19.78491256 149.82141031 3.37905584 158.03000776 -13.875 163.125 C-38.61994339 169.12217363 -67.63961992 166.72613084 -91.1875 157.3125 C-90.58502513 149.31227398 -89.1895576 141.54973064 -87.625 133.6875 C-87.39103516 132.49253906 -87.15707031 131.29757812 -86.91601562 130.06640625 C-86.34393102 127.14760725 -85.76767925 124.2296988 -85.1875 121.3125 C-81.8283996 122.41802672 -78.48566626 123.55868345 -75.15625 124.75 C-58.73218924 130.54715926 -38.92373302 135.67769618 -22.1875 128.3125 C-18.42366733 126.19106704 -15.14923511 124.23597021 -13.1875 120.3125 C-12.50629852 115.69546774 -12.46080882 112.64544512 -15.25 108.8125 C-20.37743852 103.49111582 -27.6252642 100.5175487 -34.1875 97.3125 C-50.15411428 89.50149445 -65.86020989 81.35652133 -72 63.5625 C-74.99707623 52.39625026 -73.21395089 41.99062614 -68.0625 31.8125 C-62.36394557 22.21314938 -54.85758048 15.70403964 -45.1875 10.3125 C-44.52105469 9.92449219 -43.85460937 9.53648437 -43.16796875 9.13671875 C-30.04782146 1.98278581 -14.72976399 -0.07757992 0 0 Z " fill="#FCFDFD" transform="translate(515.1875,241.6875)"/>
<path d="M0 0 C14.52 0 29.04 0 44 0 C41.75022534 14.6235353 41.75022534 14.6235353 40.91845703 19.51098633 C40.73131134 20.61376419 40.54416565 21.71654205 40.35134888 22.85273743 C40.15548187 24.00090439 39.95961487 25.14907135 39.7578125 26.33203125 C39.54816864 27.56628342 39.33852478 28.80053558 39.12252808 30.07218933 C38.45763536 33.98578843 37.79139993 37.89915729 37.125 41.8125 C36.25207463 46.94392048 35.37974644 52.07544221 34.5078125 57.20703125 C34.29315338 58.47006577 34.07849426 59.73310028 33.85733032 61.03440857 C32.3835092 69.7156036 30.92917808 78.39988398 29.48577881 87.08618164 C27.66875695 98.01162257 25.81750402 108.93122788 23.96289062 119.8503418 C23.36775251 123.35518135 22.77370271 126.86020435 22.1796875 130.36523438 C21.7943363 132.63542778 21.40892198 134.90561047 21.0234375 137.17578125 C20.84944427 138.20302811 20.67545105 139.23027496 20.4961853 140.28865051 C20.32906036 141.27145493 20.16193542 142.25425934 19.98974609 143.2668457 C19.8463681 144.11156937 19.70299011 144.95629303 19.55526733 145.82661438 C18.72784217 150.5553981 17.85876242 155.27680669 17 160 C2.48 160 -12.04 160 -27 160 C-26.36036051 153.6036051 -25.6606004 147.34689495 -24.6171875 141.0234375 C-24.41489281 139.77659431 -24.41489281 139.77659431 -24.20851135 138.50456238 C-23.76744288 135.79413434 -23.32148327 133.08454094 -22.875 130.375 C-22.72104767 129.43437714 -22.56709534 128.49375427 -22.40847778 127.52462769 C-19.89975513 112.19727269 -17.26386659 96.89418543 -14.56054688 81.60009766 C-12.59916964 70.49391061 -10.71265536 59.37729325 -8.875 48.25 C-7.03725412 37.13524736 -5.15841308 26.02948116 -3.1875 14.9375 C-2.98044434 13.76541992 -2.77338867 12.59333984 -2.56005859 11.38574219 C-2.36879395 10.3187207 -2.1775293 9.25169922 -1.98046875 8.15234375 C-1.81442139 7.22413818 -1.64837402 6.29593262 -1.47729492 5.33959961 C-1 3 -1 3 0 0 Z " fill="#FCFDFD" transform="translate(381,245)"/>
<path d="M0 0 C9.32800216 -0.0698124 18.65591302 -0.12296876 27.98412037 -0.15543652 C32.31657518 -0.17102712 36.64884994 -0.19214313 40.98120117 -0.22631836 C45.16983981 -0.25914946 49.35830635 -0.27690256 53.54706383 -0.28463173 C55.13729241 -0.29013295 56.72751262 -0.30087431 58.31766701 -0.31719017 C79.70065244 -0.52766979 79.70065244 -0.52766979 86.4375 5 C91.21330939 14.16955402 93.17736658 23.90348931 95 34 C95.38474927 36.07331993 95.77278313 38.1460064 96.16119385 40.21864319 C96.4168842 41.58347493 96.67157508 42.94849431 96.92523193 44.31370544 C97.93921973 49.75181558 99.06828491 55.15882882 100.25 60.5625 C101.86325553 68.0038448 103.06267788 75.43975708 104 83 C101.67058788 80.14897106 99.99735578 77.15599857 98.34765625 73.87182617 C94.80579473 66.8281091 90.93025686 60.99888824 85.6875 55.07421875 C84 53 84 53 84 51 C83.34 51 82.68 51 82 51 C80.28769752 49.38025441 78.62836738 47.7041054 77 46 C69.30673457 38.09303276 61.42114487 31.72805608 52 26 C51.01257813 25.3503125 50.02515625 24.700625 49.0078125 24.03125 C35.66448028 15.3797129 21.14583482 10.52848589 6 6 C3.99730107 5.34148544 1.99628974 4.6776959 0 4 C0 2.68 0 1.36 0 0 Z " fill="#FBAE04" transform="translate(164,245)"/>
<path d="M0 0 C0.66 0 1.32 0 2 0 C2.22550537 1.06021362 2.22550537 1.06021362 2.45556641 2.1418457 C3.17747958 5.53232755 3.90099247 8.92246475 4.625 12.3125 C4.89135254 13.56023193 5.15770508 14.80796387 5.43212891 16.09350586 C7.61050733 26.26246219 9.8603554 36.41396333 12.17041016 46.55395508 C12.41065918 47.62025146 12.6509082 48.68654785 12.8984375 49.78515625 C13.11161621 50.72238525 13.32479492 51.65961426 13.54443359 52.62524414 C14 55 14 55 14 58 C2.45 58 -9.1 58 -21 58 C-19.87684211 51.26105263 -19.87684211 51.26105263 -18.57421875 48.1640625 C-18.27773438 47.44444336 -17.98125 46.72482422 -17.67578125 45.98339844 C-17.34964844 45.20512695 -17.02351562 44.42685547 -16.6875 43.625 C-12.76868216 34.06917051 -9.11181171 24.42480659 -5.5 14.75 C-5.22707123 14.01952454 -4.95414246 13.28904907 -4.67294312 12.53643799 C-3.11233559 8.35872494 -1.55479687 4.17987976 0 0 Z " fill="#054495" transform="translate(636,290)"/>
<path d="M0 0 C7.66567762 3.71669218 12.12452975 10.23182247 15.13830221 17.96448255 C16.78868185 23.77830295 16.53788609 29.6941572 16.48774719 35.69076538 C16.4902112 37.16497792 16.49443078 38.63918838 16.50024194 40.11339152 C16.51107498 44.14218842 16.49711351 48.17056819 16.47892153 52.19932437 C16.46365458 56.55237331 16.47158609 60.90538914 16.47660828 65.25845337 C16.48282362 73.77562047 16.46787076 82.29262468 16.44588266 90.8097605 C16.42116472 100.72734631 16.41827684 110.64490255 16.41647889 120.56251462 C16.41260524 138.25313771 16.39015466 155.94368749 16.35668945 173.63427734 C16.32423321 190.80550442 16.30300394 207.9766928 16.29516602 225.14794922 C16.29468052 226.2064308 16.29419503 227.26491237 16.29369483 228.35546915 C16.29176617 232.60994457 16.28985404 236.86441999 16.28797873 241.11889543 C16.28045065 257.48071029 16.26482393 273.84251878 16.24748212 290.20432585 C16.24224449 295.14854461 16.23731144 300.09276324 16.2331202 305.03698301 C16.22420557 315.43052435 16.21243827 325.82404714 16.19155417 336.21757214 C16.18294976 340.51575435 16.17586755 344.81392371 16.17303848 349.11211395 C16.17037494 353.04347342 16.16309553 356.9747958 16.15204801 360.9061404 C16.14883784 362.33120322 16.14730975 363.75627099 16.1475983 365.1813374 C16.14772324 367.1128827 16.14115446 369.04442501 16.13422108 370.97595787 C16.13243251 372.05046176 16.13064394 373.12496566 16.12880117 374.23203027 C16.01591849 376.65790768 15.70081597 378.68562448 15 381 C14.01 380.67 13.02 380.34 12 380 C12.33 378.35 12.66 376.7 13 375 C13.66 375 14.32 375 15 375 C14.91825403 330.27640509 14.82609599 285.55284218 14.71994839 240.82929816 C14.70742932 235.55083111 14.69499658 230.27236386 14.68261719 224.99389648 C14.68015119 223.94303626 14.6776852 222.89217603 14.67514448 221.80947156 C14.63540671 204.78784502 14.60266387 187.76621184 14.57250018 170.74456596 C14.54140043 153.28243053 14.50279735 135.82032336 14.45720994 118.35821968 C14.42931084 107.58075506 14.40728395 96.80331114 14.39273749 86.02582008 C14.38220594 78.63810437 14.36439466 71.25042869 14.34083296 63.86274313 C14.32744928 59.59867852 14.31730013 55.33467009 14.31578636 51.07058334 C14.31432954 47.16638255 14.30372677 43.2623171 14.28586559 39.35815788 C14.28101763 37.94620645 14.27951911 36.53423869 14.28172119 35.12228065 C14.33262544 25.37193002 14.33262544 25.37193002 12 16 C11.34 16 10.68 16 10 16 C9.67 14.02 9.34 12.04 9 10 C7.35 9.67 5.7 9.34 4 9 C3.67 7.35 3.34 5.7 3 4 C1.68 4 0.36 4 -1 4 C-0.67 2.68 -0.34 1.36 0 0 Z " fill="#0F4180" transform="translate(736,125)"/>
<path d="M0 0 C0.66 0.33 1.32 0.66 2 1 C2 1.66 2 2.32 2 3 C2.99 3.33 3.98 3.66 5 4 C7.51099739 11.79739876 7.2785992 19.64895986 7.24723816 27.76705933 C7.24882821 29.26174282 7.25129376 30.7564256 7.25455457 32.25110638 C7.26094456 36.34098389 7.25491825 40.43076182 7.24679029 44.52063274 C7.24019506 48.93775426 7.24516564 53.35486497 7.24867249 57.77198792 C7.25370701 66.41657622 7.24808281 75.0611262 7.23882218 83.70570974 C7.22842888 93.76974084 7.2285086 103.83376369 7.22899476 113.89779915 C7.22949508 131.84854086 7.22034086 149.79926473 7.20581055 167.75 C7.19171111 185.17741216 7.18464034 202.60480862 7.18530273 220.03222656 C7.18534269 221.10647125 7.18538265 222.18071593 7.18542381 223.28751348 C7.18548435 224.89607141 7.18548435 224.89607141 7.1855461 226.53712547 C7.18623535 246.37227169 7.18035096 266.20741124 7.17139288 286.04255529 C7.1683734 293.06242676 7.16731297 300.082297 7.16686058 307.10216904 C7.1661795 315.64892113 7.16172936 324.19566196 7.15252777 332.74240927 C7.14790147 337.10527149 7.14486736 341.46811928 7.14612198 345.83098412 C7.14721359 349.82030663 7.14371968 353.80959717 7.13647345 357.79891302 C7.13465395 359.24619676 7.13453579 360.69348379 7.13624074 362.14076768 C7.13829406 364.09988753 7.13365625 366.05901104 7.12863445 368.01812553 C7.12793003 369.10874003 7.1272256 370.19935453 7.12649983 371.32301795 C7 374 7 374 6 377 C5.34 377 4.68 377 4 377 C4.16223169 376.13932159 4.32446338 375.27864318 4.49161118 374.39188361 C4.98366679 371.10897237 5.12869665 368.04637739 5.13422108 364.72986221 C5.13867892 363.48399409 5.14313676 362.23812596 5.14772969 360.95450425 C5.14764041 359.57987864 5.14745059 358.20525303 5.14717102 356.83062744 C5.15047253 355.36414612 5.15419871 353.8976657 5.1583125 352.43118644 C5.16830744 348.405087 5.17204523 344.37900248 5.17470181 340.3528924 C5.17861216 336.00920132 5.1881898 331.66552196 5.19691467 327.32183838 C5.21665559 316.83551318 5.22674102 306.34918705 5.23564246 295.86284792 C5.24002813 290.92300709 5.24539412 285.98316732 5.25063133 281.04332733 C5.26763913 264.62069547 5.282134 248.19806427 5.28938007 231.77542496 C5.29128991 227.5159734 5.29321026 223.25652185 5.29516602 218.99707031 C5.29564976 217.93842757 5.2961335 216.87978482 5.2966319 215.78906199 C5.30493492 198.63400452 5.33027846 181.47901671 5.36274669 164.32398966 C5.39581753 146.70685669 5.41382875 129.08975915 5.41702431 111.47259498 C5.41918908 101.58290518 5.42793327 91.69331706 5.45348549 81.80365753 C5.47519256 73.3829008 5.48324275 64.96227046 5.47351871 56.54148892 C5.46897441 52.24654438 5.47086783 47.95186066 5.49028015 43.6569519 C5.50791495 39.72128657 5.50691179 35.78607224 5.49138286 31.85040209 C5.48900729 30.43048817 5.49332776 29.01054299 5.50521151 27.59067681 C5.57121829 19.17987473 4.84800421 12.53449667 1 5 C0.62680061 4.25063872 0.25360122 3.50127743 -0.13090724 2.72920823 C-0.41770785 2.15856951 -0.70450846 1.5879308 -1 1 C-0.67 0.67 -0.34 0.34 0 0 Z " fill="#EDFEFE" transform="translate(746,131)"/>
<path d="M0 0 C0.33 0 0.66 0 1 0 C1 3.63 1 7.26 1 11 C1.99 11.33 2.98 11.66 4 12 C5.6875 15.5625 5.6875 15.5625 7 19 C7.66 19 8.32 19 9 19 C9 17.68 9 16.36 9 15 C9.66 15 10.32 15 11 15 C11 13.68 11 12.36 11 11 C11.99 11 12.98 11 14 11 C11.93221772 17.45042522 9.22689606 23.55635237 6.5 29.75 C5.75169922 31.47283203 5.75169922 31.47283203 4.98828125 33.23046875 C4.26705078 34.87208984 4.26705078 34.87208984 3.53125 36.546875 C2.87479492 38.04492676 2.87479492 38.04492676 2.20507812 39.57324219 C1 42 1 42 -1 44 C-1.08226668 40.95613276 -0.97608217 38.92824652 0 36 C-0.495 34.515 -0.495 34.515 -1 33 C-1.99 35.475 -1.99 35.475 -3 38 C-5.60018816 34.09971775 -5.15085514 30.52565431 -5 26 C-6.99983534 26.79117904 -6.99983534 26.79117904 -9 28 C-9.33 28.99 -9.66 29.98 -10 31 C-13.0625 32.1875 -13.0625 32.1875 -16 33 C-15.0843974 31.77004051 -14.16745797 30.54107614 -13.25 29.3125 C-12.73953125 28.62800781 -12.2290625 27.94351562 -11.703125 27.23828125 C-10.51071962 25.67119803 -9.25837604 24.14876942 -7.96484375 22.6640625 C-5.68628027 19.57463846 -4.56017484 16.68744804 -3.3125 13.0625 C-2.68794922 11.28552734 -2.68794922 11.28552734 -2.05078125 9.47265625 C-1.09265065 6.30619489 -0.45460758 3.27217545 0 0 Z " fill="#074494" transform="translate(548,357)"/>
<path d="M0 0 C9.32800216 -0.0698124 18.65591302 -0.12296876 27.98412037 -0.15543652 C32.31657518 -0.17102712 36.64884994 -0.19214313 40.98120117 -0.22631836 C45.16983981 -0.25914946 49.35830635 -0.27690256 53.54706383 -0.28463173 C55.13729241 -0.29013295 56.72751262 -0.30087431 58.31766701 -0.31719017 C80.07625888 -0.531367 80.07625888 -0.531367 86.5 5.25 C91.15570934 13.78546713 91.15570934 13.78546713 90.6875 17.4375 C90.460625 17.953125 90.23375 18.46875 90 19 C86.90566277 16.46826954 85.95849206 13.83396824 85 10 C85.33 9.01 85.66 8.02 86 7 C85.01 6.67 84.02 6.34 83 6 C83 5.34 83 4.68 83 4 C80.69 4 78.38 4 76 4 C76 3.34 76 2.68 76 2 C68.22861467 2.08435454 60.4574352 2.17921863 52.68635082 2.28752708 C49.07796771 2.33748759 45.46961383 2.38381744 41.86108398 2.421875 C38.37908872 2.45873124 34.89733823 2.5050917 31.41555214 2.55806351 C29.43972886 2.58563386 27.463776 2.6033425 25.48783875 2.62094116 C24.28682022 2.64081085 23.0858017 2.66068054 21.84838867 2.68115234 C20.25954109 2.70113785 20.25954109 2.70113785 18.63859558 2.7215271 C15.77033327 2.81777733 15.77033327 2.81777733 13 5 C14.2065625 5.185625 14.2065625 5.185625 15.4375 5.375 C16.283125 5.58125 17.12875 5.7875 18 6 C18.33 6.66 18.66 7.32 19 8 C21.52733235 8.65555119 21.52733235 8.65555119 24 9 C24 9.66 24 10.32 24 11 C17.82203844 9.75856564 11.94392045 8.08148525 6 6 C4.824375 5.608125 3.64875 5.21625 2.4375 4.8125 C1.633125 4.544375 0.82875 4.27625 0 4 C0 2.68 0 1.36 0 0 Z " fill="#CEA843" transform="translate(164,245)"/>
<path d="M0 0 C9.18034698 -0.06986493 18.36060082 -0.12299496 27.54115677 -0.15543652 C31.80520344 -0.17101587 36.06906667 -0.19211068 40.33300781 -0.22631836 C44.45681278 -0.25919041 48.58044259 -0.27691096 52.70436859 -0.28463173 C54.26865135 -0.29012575 55.83292578 -0.30085244 57.39713287 -0.31719017 C66.65179077 -0.4099069 75.08924794 0.16470591 84 3 C84 3.66 84 4.32 84 5 C82.86248291 4.67854004 81.72496582 4.35708008 80.55297852 4.02587891 C73.18929288 2.40041043 65.65545602 2.64088683 58.15234375 2.5859375 C56.52851914 2.56719935 54.90470399 2.54762402 53.28089905 2.5272522 C49.03465387 2.47620428 44.78837721 2.43643337 40.54199219 2.39910889 C36.19783925 2.35889656 31.85381414 2.30788335 27.50976562 2.2578125 C19.00659816 2.1613775 10.50336675 2.07687038 2 2 C2 3.32 2 4.64 2 6 C4.97 6.495 4.97 6.495 8 7 C8 7.33 8 7.66 8 8 C5.66705225 8.04241723 3.33297433 8.04092937 1 8 C0 7 0 7 -0.0625 3.4375 C-0.041875 2.303125 -0.02125 1.16875 0 0 Z " fill="#284257" transform="translate(162,243)"/>
<path d="M0 0 C0.33 0 0.66 0 1 0 C1.02692484 2.29160319 1.04636124 4.58329546 1.0625 6.875 C1.07410156 8.15117187 1.08570313 9.42734375 1.09765625 10.7421875 C1 14 1 14 0 16 C-0.11580042 17.41237071 -0.17847152 18.8293557 -0.2109375 20.24609375 C-0.25347656 21.50196289 -0.25347656 21.50196289 -0.296875 22.78320312 C-0.34883719 24.54861851 -0.39314467 26.31427628 -0.4296875 28.08007812 C-0.47609375 29.33788086 -0.47609375 29.33788086 -0.5234375 30.62109375 C-0.54325684 31.3886499 -0.56307617 32.15620605 -0.58349609 32.94702148 C-1.10044135 35.49508282 -2.15476484 36.23541947 -4 38 C-4.50833014 40.5873433 -4.87477185 43.014777 -5.125 45.625 C-5.89527027 52.89527027 -5.89527027 52.89527027 -7 54 C-8.41225046 54.0928726 -9.82908934 54.11746772 -11.24438477 54.11352539 C-12.14524307 54.11344986 -13.04610138 54.11337433 -13.97425842 54.11329651 C-14.95341721 54.10813522 -15.93257599 54.10297394 -16.94140625 54.09765625 C-17.93881332 54.0962413 -18.9362204 54.09482635 -19.96385193 54.09336853 C-23.16343124 54.08775114 -26.36294169 54.07519571 -29.5625 54.0625 C-31.72591045 54.05748724 -33.88932199 54.05292395 -36.05273438 54.04882812 C-41.36851325 54.03777607 -46.68425171 54.02102104 -52 54 C-52 53.67 -52 53.34 -52 53 C-37.48 53 -22.96 53 -8 53 C-8 50.69 -8 48.38 -8 46 C-7.83751801 44.57272371 -7.63449607 43.14887544 -7.37329102 41.73632812 C-7.23637344 40.97864136 -7.09945587 40.22095459 -6.95838928 39.44030762 C-6.80840988 38.6453186 -6.65843048 37.85032959 -6.50390625 37.03125 C-6.35090561 36.1921106 -6.19790497 35.35297119 -6.04026794 34.48840332 C-5.55346029 31.82450217 -5.05832167 29.16223667 -4.5625 26.5 C-4.07193418 23.83747996 -3.58311768 21.17464785 -3.09544373 18.51159668 C-2.79253161 16.86058448 -2.48768177 15.20992618 -2.18055725 13.55969238 C-1.34688938 9.05008775 -0.61564294 4.54466035 0 0 Z " fill="#305D97" transform="translate(406,352)"/>
<path d="M0 0 C15.51 0 31.02 0 47 0 C44 9 44 9 41 13 C41.33 9.37 41.66 5.74 42 2 C40.35 2.33 38.7 2.66 37 3 C34.4209792 3.08139854 31.87081587 3.11677186 29.29296875 3.09765625 C28.20487663 3.09553383 28.20487663 3.09553383 27.09480286 3.09336853 C24.7923255 3.08779931 22.48994765 3.07525261 20.1875 3.0625 C18.62044412 3.05748102 17.0533867 3.05291881 15.48632812 3.04882812 C11.65751411 3.03783998 7.82877389 3.02059673 4 3 C3.75765625 3.55429688 3.5153125 4.10859375 3.265625 4.6796875 C2.93046875 5.40414062 2.5953125 6.12859375 2.25 6.875 C1.92515625 7.59429687 1.6003125 8.31359375 1.265625 9.0546875 C-0.21929686 11.3370674 -1.50415408 12.00375898 -4 13 C-3.52140759 11.39566191 -3.04210442 9.79153584 -2.5625 8.1875 C-2.29566406 7.29417969 -2.02882813 6.40085938 -1.75390625 5.48046875 C-1.19612127 3.64526945 -0.60655425 1.81966274 0 0 Z " fill="#D5ECFB" transform="translate(316,245)"/>
<path d="M0 0 C18.48 0 36.96 0 56 0 C58 7 58 7 57 11 C56.01 8.36 55.02 5.72 54 3 C46.95248176 2.97465707 39.90497527 2.95713609 32.85742188 2.94506836 C30.45963095 2.9400378 28.06184309 2.93321267 25.6640625 2.92456055 C22.21874229 2.91243918 18.77346263 2.90675892 15.328125 2.90234375 C14.25508118 2.89718246 13.18203735 2.89202118 12.07647705 2.88670349 C11.07574158 2.88662796 10.0750061 2.88655243 9.04394531 2.88647461 C8.16458313 2.884254 7.28522095 2.88203339 6.37921143 2.87974548 C4.11480237 2.99419745 2.17028138 3.36504547 0 4 C-0.28875 5.134375 -0.5775 6.26875 -0.875 7.4375 C-1.24625 8.613125 -1.6175 9.78875 -2 11 C-2.99 11.495 -2.99 11.495 -4 12 C-3.52309796 10.37433394 -3.04340334 8.74948689 -2.5625 7.125 C-2.29566406 6.22007812 -2.02882813 5.31515625 -1.75390625 4.3828125 C-1 2 -1 2 0 0 Z " fill="#25528D" transform="translate(601,381)"/>
<path d="M0 0 C1.3126609 0.00636726 1.3126609 0.00636726 2.65184021 0.01286316 C5.41275447 0.02948894 8.1729048 0.06710909 10.93359375 0.10546875 C12.81965082 0.12053647 14.70571948 0.13422119 16.59179688 0.14648438 C21.18518458 0.17933938 25.77801022 0.2310074 30.37109375 0.29296875 C30.87655411 2.37498403 31.3752621 4.45863942 31.87109375 6.54296875 C32.14953125 7.703125 32.42796875 8.86328125 32.71484375 10.05859375 C33.37109375 13.29296875 33.37109375 13.29296875 33.37109375 17.29296875 C32.71109375 17.29296875 32.05109375 17.29296875 31.37109375 17.29296875 C30.86822441 15.33537025 30.36888385 13.37686498 29.87109375 11.41796875 C29.59265625 10.32742187 29.31421875 9.236875 29.02734375 8.11328125 C28.37109375 5.29296875 28.37109375 5.29296875 28.37109375 3.29296875 C22.62364517 3.21870247 16.87647715 3.16431149 11.12866211 3.12817383 C9.17418552 3.11310574 7.21974263 3.09264751 5.26538086 3.06665039 C2.45287752 3.0301801 -0.35917799 3.01322253 -3.171875 3 C-4.04289352 2.98451614 -4.91391205 2.96903229 -5.81132507 2.95307922 C-10.67653416 2.95173558 -13.58662108 3.32060422 -17.62890625 6.29296875 C-19.61342396 7.00439963 -21.61092737 7.68288211 -23.62890625 8.29296875 C-17.37018599 0.82288327 -9.35184217 -0.17477688 0 0 Z " fill="#D5EBFB" transform="translate(637.62890625,244.70703125)"/>
<path d="M0 0 C6.22743597 -0.30626734 11.18267721 0.37262433 17.12890625 2.24609375 C23.31222482 3.86974067 29.53711316 4.15192402 35.90234375 4.1328125 C36.62434464 4.13376923 37.34634552 4.13472595 38.09022522 4.13571167 C39.60531706 4.136387 41.1204119 4.13457832 42.63549805 4.13037109 C44.92829019 4.12502149 47.22088577 4.13033421 49.51367188 4.13671875 C56.73680033 4.1396618 63.83501186 4.02706315 71 3 C71 3.66 71 4.32 71 5 C51.86227712 11.37924096 19.95304075 9.53153689 1.71118164 0.91943359 C1.1464917 0.61602051 0.58180176 0.31260742 0 0 Z " fill="#DEF2F9" transform="translate(428,400)"/>
<path d="M0 0 C14.52 0 29.04 0 44 0 C43.67 2.31 43.34 4.62 43 7 C42.34 6.67 41.68 6.34 41 6 C41 4.68 41 3.36 41 2 C27.8 2.33 14.6 2.66 1 3 C1 5.64 1 8.28 1 11 C0.25926365 13.8571259 -0.83053922 16.27125817 -2 19 C-3 15 -3 15 0 0 Z " fill="#D1E9FB" transform="translate(381,245)"/>
<path d="M0 0 C2 4 2 4 4 13 C19.51 13 35.02 13 51 13 C51.33 12.01 51.66 11.02 52 10 C51.67 11.65 51.34 13.3 51 15 C44.38069555 15.26972177 37.76086739 15.49965212 31.13916016 15.7019043 C28.8865634 15.77541145 26.63424511 15.85803937 24.38232422 15.94995117 C21.14580651 16.08046742 17.90970561 16.17818776 14.671875 16.26953125 C13.16074127 16.34105156 13.16074127 16.34105156 11.61907959 16.41401672 C4.6395826 16.56536644 4.6395826 16.56536644 1.35742188 13.6640625 C-0.21840047 10.57136944 -0.41623838 8.63694645 -0.25 5.1875 C-0.21390625 4.21167969 -0.1778125 3.23585938 -0.140625 2.23046875 C-0.09421875 1.49441406 -0.0478125 0.75835937 0 0 Z " fill="#1B4684" transform="translate(244,392)"/>
<path d="M0 0 C0.66 0 1.32 0 2 0 C1.67 1.65 1.34 3.3 1 5 C-14.51 5 -30.02 5 -46 5 C-44.68 4.34 -43.36 3.68 -42 3 C-41.67 2.67 -41.34 2.34 -41 2 C-38.21174652 1.89894178 -35.44879127 1.8603016 -32.66015625 1.8671875 C-31.82286484 1.86623077 -30.98557343 1.86527405 -30.12290955 1.86428833 C-28.34829636 1.86360645 -26.57368069 1.86546128 -24.79907227 1.86962891 C-22.0775798 1.8749704 -19.35625288 1.86968765 -16.63476562 1.86328125 C-14.91406213 1.86394216 -13.19335875 1.86522359 -11.47265625 1.8671875 C-10.65491226 1.86516327 -9.83716827 1.86313904 -8.99464417 1.86105347 C-3.22991015 1.88504493 -3.22991015 1.88504493 -1 3 C-0.67 2.01 -0.34 1.02 0 0 Z " fill="#EAFBFC" transform="translate(294,400)"/>
<path d="M0 0 C0.33 0 0.66 0 1 0 C1.24234375 1.29550781 1.4846875 2.59101563 1.734375 3.92578125 C3.43350975 12.95275547 5.1805048 21.95992094 7.125 30.9375 C8.77642997 38.59050701 10.03622289 46.22637669 11 54 C7.60951161 49.857247 5.38015177 45.14332387 2.9609375 40.40039062 C1.26786004 37.14670932 -0.31090895 34.49581263 -3 32 C-3 31.34 -3 30.68 -3 30 C1.75 31.875 1.75 31.875 4 33 C4 35.31 4 37.62 4 40 C4.66 40 5.32 40 6 40 C3.96569088 29.05715595 3.96569088 29.05715595 1.875 18.125 C1.72804688 17.36445313 1.58109375 16.60390625 1.4296875 15.8203125 C1.05378866 13.9161039 1.05378866 13.9161039 0 12 C-0.07065617 9.95944995 -0.08421976 7.91665743 -0.0625 5.875 C-0.05347656 4.77929688 -0.04445313 3.68359375 -0.03515625 2.5546875 C-0.02355469 1.71164062 -0.01195312 0.86859375 0 0 Z " fill="#DDAD33" transform="translate(257,274)"/>
<path d="M0 0 C7.58898871 -0.04643548 15.1779626 -0.08192605 22.76706123 -0.10362434 C26.29137329 -0.11404089 29.81558781 -0.12816092 33.33984375 -0.15087891 C37.39584261 -0.1768596 41.45173975 -0.18649038 45.5078125 -0.1953125 C46.76739777 -0.20563507 48.02698303 -0.21595764 49.32473755 -0.22659302 C50.50550873 -0.22674408 51.68627991 -0.22689514 52.90283203 -0.22705078 C53.93763702 -0.231492 54.97244202 -0.23593323 56.03860474 -0.24050903 C60.55841083 0.12656598 63.94810628 0.94810628 67.1875 4.1875 C72.25073746 12.04424779 72.25073746 12.04424779 71.6875 16.4375 C71.460625 16.953125 71.23375 17.46875 71 18 C67.90566277 15.46826954 66.95849206 12.83396824 66 9 C66.33 8.01 66.66 7.02 67 6 C66.01 5.67 65.02 5.34 64 5 C64 4.34 64 3.68 64 3 C61.69 3 59.38 3 57 3 C57 2.34 57 1.68 57 1 C38.19 1 19.38 1 0 1 C0 0.67 0 0.34 0 0 Z " fill="#E9B326" transform="translate(183,246)"/>
<path d="M0 0 C0.66 0 1.32 0 2 0 C1.34 2.64 0.68 5.28 0 8 C11.55 8 23.1 8 35 8 C32 11 32 11 29.06079102 11.32470703 C27.88701904 11.30263184 26.71324707 11.28055664 25.50390625 11.2578125 C24.22322266 11.24363281 22.94253906 11.22945313 21.62304688 11.21484375 C20.26951323 11.18572143 18.9159973 11.15576498 17.5625 11.125 C14.91799463 11.07868864 12.27361921 11.04238391 9.62890625 11.0078125 C7.8665564 10.97131592 7.8665564 10.97131592 6.06860352 10.93408203 C3.09811613 10.87386442 3.09811613 10.87386442 0.71069336 11.62451172 C0.14616455 11.74842285 -0.41836426 11.87233398 -1 12 C-1.66 11.34 -2.32 10.68 -3 10 C-2.01 6.7 -1.02 3.4 0 0 Z " fill="#C6DAE9" transform="translate(615,340)"/>
<path d="M0 0 C1.48125366 0.00424484 1.48125366 0.00424484 2.99243164 0.00857544 C6.12008215 0.0196943 9.24743728 0.04478334 12.375 0.0703125 C14.50650626 0.08035302 16.63801704 0.08947699 18.76953125 0.09765625 C23.9714535 0.11960638 29.17320564 0.15300043 34.375 0.1953125 C34.375 0.5253125 34.375 0.8553125 34.375 1.1953125 C36.0765625 1.3809375 36.0765625 1.3809375 37.8125 1.5703125 C38.988125 1.7765625 40.16375 1.9828125 41.375 2.1953125 C41.87 3.1853125 41.87 3.1853125 42.375 4.1953125 C40.3748173 4.05200673 38.37486175 3.90552956 36.375 3.7578125 C34.704375 3.63599609 34.704375 3.63599609 33 3.51171875 C30.55834706 3.29860034 28.12182125 3.01704716 25.6953125 2.671875 C20.22786174 1.97036346 14.75473852 2.00449414 9.25 2.0078125 C8.14793213 2.00716797 7.04586426 2.00652344 5.91040039 2.00585938 C-2.09874492 2.05767945 -9.75547762 2.61859245 -17.625 4.1953125 C-17.955 3.5353125 -18.285 2.8753125 -18.625 2.1953125 C-12.28030373 0.31660633 -6.59523835 -0.07219265 0 0 Z " fill="#174987" transform="translate(506.625,240.8046875)"/>
<path d="M0 0 C0.81496445 0.0199855 1.62992889 0.03997101 2.46958923 0.06056213 C3.39046829 0.08065842 4.31134735 0.1007547 5.26013184 0.12145996 C6.76168068 0.16201256 6.76168068 0.16201256 8.29356384 0.2033844 C9.31316696 0.22699539 10.33277008 0.25060638 11.38327026 0.27493286 C14.65428364 0.35178172 17.92507276 0.43571427 21.19590759 0.51979065 C23.407485 0.57299011 25.61907349 0.62573062 27.83067322 0.67799377 C33.26505812 0.80742538 38.69927518 0.94268015 44.13340759 1.08229065 C44.13340759 1.41229065 44.13340759 1.74229065 44.13340759 2.08229065 C28.95340759 2.08229065 13.77340759 2.08229065 -1.86659241 2.08229065 C-2.19659241 4.06229065 -2.52659241 6.04229065 -2.86659241 8.08229065 C-3.62269592 10.32398987 -3.62269592 10.32398987 -4.49549866 12.38697815 C-4.80809631 13.1346344 -5.12069397 13.88229065 -5.44276428 14.65260315 C-5.9309967 15.79342346 -5.9309967 15.79342346 -6.42909241 16.95729065 C-6.75844788 17.74104065 -7.08780334 18.52479065 -7.42713928 19.33229065 C-8.23456027 21.25137821 -9.0497901 23.16717715 -9.86659241 25.08229065 C-10.52659241 23.76229065 -11.18659241 22.44229065 -11.86659241 21.08229065 C-10.87659241 20.75229065 -9.88659241 20.42229065 -8.86659241 20.08229065 C-8.94909241 19.25729065 -9.03159241 18.43229065 -9.11659241 17.58229065 C-8.8356594 13.64922858 -7.73409329 11.38935058 -5.88612366 7.98072815 C-4.68786556 5.74948893 -3.79392216 3.43628156 -2.86659241 1.08229065 C-1.86659241 0.08229065 -1.86659241 0.08229065 0 0 Z " fill="#0F3E7C" transform="translate(317.86659240722656,242.91770935058594)"/>
<path d="M0 0 C6.42273448 0.82873993 13.10644833 3.74473768 18 8 C16.68 8.33 15.36 8.66 14 9 C14 8.34 14 7.68 14 7 C12.8553125 7.4640625 12.8553125 7.4640625 11.6875 7.9375 C5.88494318 10.23153409 5.88494318 10.23153409 1.8125 8.5625 C1.09707031 8.27503906 0.38164062 7.98757813 -0.35546875 7.69140625 C-1.16951172 7.34916016 -1.16951172 7.34916016 -2 7 C-2 6.01 -2 5.02 -2 4 C-1.01 3.34 -0.02 2.68 1 2 C0.67 1.34 0.34 0.68 0 0 Z " fill="#09458B" transform="translate(190,258)"/>
<path d="M0 0 C6.08723655 -0.02467081 12.17444417 -0.04284604 18.26171875 -0.05493164 C20.33366401 -0.05996852 22.4056057 -0.06679825 24.47753906 -0.07543945 C27.45118082 -0.08753321 30.42477569 -0.09323467 33.3984375 -0.09765625 C34.32868744 -0.10281754 35.25893738 -0.10797882 36.21737671 -0.11329651 C37.07811798 -0.11337204 37.93885925 -0.11344757 38.82568359 -0.11352539 C39.58513275 -0.115746 40.34458191 -0.11796661 41.12704468 -0.12025452 C43 0 43 0 45 1 C44.85691406 1.84820312 44.71382813 2.69640625 44.56640625 3.5703125 C43.99968273 7.00192112 43.4637299 10.43696464 42.9375 13.875 C42.76089844 15.02742188 42.58429688 16.17984375 42.40234375 17.3671875 C42.26957031 18.23601562 42.13679688 19.10484375 42 20 C41.34 19.67 40.68 19.34 40 19 C40.11633358 17.47847921 40.2435887 15.95779277 40.375 14.4375 C40.44460938 13.59058594 40.51421875 12.74367187 40.5859375 11.87109375 C41 9 41 9 43 2 C28.81 2 14.62 2 0 2 C0 1.34 0 0.68 0 0 Z M45 0 C47 1 47 1 47 1 Z " fill="#0F4180" transform="translate(382,243)"/>
<path d="M0 0 C0.99 0.99 1.98 1.98 3 3 C-0.63 10.92 -4.26 18.84 -8 27 C-8.66 27 -9.32 27 -10 27 C-10.4916899 21.7143336 -9.26767248 20.00553401 -6 16 C-6.165 15.37867188 -6.33 14.75734375 -6.5 14.1171875 C-7.16085367 11.31888523 -6.42714737 10.23117703 -5.0625 7.75 C-4.68222656 7.04359375 -4.30195312 6.3371875 -3.91015625 5.609375 C-3.60980469 5.07828125 -3.30945313 4.5471875 -3 4 C-2.34 4.33 -1.68 4.66 -1 5 C-0.67 3.35 -0.34 1.7 0 0 Z " fill="#0E438F" transform="translate(571,340)"/>
<path d="M0 0 C13.2 0 26.4 0 40 0 C37.07692324 2.92307676 33.92828197 2.41270748 30 2.51953125 C29.20851563 2.54601242 28.41703125 2.57249359 27.6015625 2.59977722 C25.92723297 2.65248171 24.25273543 2.7000594 22.578125 2.74291992 C20.00947158 2.81224437 17.44271091 2.90814262 14.875 3.00585938 C13.25004696 3.0537057 11.62504679 3.09998265 10 3.14453125 C8.84371094 3.19115654 8.84371094 3.19115654 7.6640625 3.23872375 C5.5 3.28051758 5.5 3.28051758 2 3 C1.34 2.01 0.68 1.02 0 0 Z " fill="#244F8C" transform="translate(662,405)"/>
<path d="M0 0 C0.66 0.66 1.32 1.32 2 2 C1.071875 3.7325 1.071875 3.7325 0.125 5.5 C-4.81161992 15.5132858 -5.61128674 25.77260106 -2.1875 36.4375 C-0.83051284 40.25890062 0.83023387 43.57438069 3 47 C2.01 47.495 2.01 47.495 1 48 C0.731875 47.401875 0.46375 46.80375 0.1875 46.1875 C-0.8560011 43.98226124 -0.8560011 43.98226124 -2.5 42.625 C-6.77272081 37.99621912 -6.38395399 31.35384744 -6.375 25.4375 C-6.37628906 24.55868164 -6.37757813 23.67986328 -6.37890625 22.77441406 C-6.25827425 15.28152193 -4.84844581 8.96851921 -2 2 C-1.34 2 -0.68 2 0 2 C0 1.34 0 0.68 0 0 Z " fill="#174886" transform="translate(447,270)"/>
<path d="M0 0 C3.875 1.75 3.875 1.75 5 4 C5.33 3.34 5.66 2.68 6 2 C6.66 2 7.32 2 8 2 C10.02878875 8.25543198 7.39023396 13.23471465 5 19 C2.59723991 15.39585987 2.09059164 11.99286955 1.375 7.8125 C1.2409375 7.06291016 1.106875 6.31332031 0.96875 5.54101562 C0.63954581 3.69512072 0.31893502 1.84769691 0 0 Z " fill="#0D4995" transform="translate(270,334)"/>
<path d="M0 0 C0.33 0 0.66 0 1 0 C1.33 2.64 1.66 5.28 2 8 C1.37222656 8.36996094 0.74445313 8.73992187 0.09765625 9.12109375 C-2.65757536 11.58900139 -2.86807413 13.4680818 -3.5625 17.0625 C-4.19140625 20.28515625 -4.19140625 20.28515625 -5 23 C-5.99 23.66 -6.98 24.32 -8 25 C-9.20450304 27.55183404 -9.20450304 27.55183404 -10 30 C-10.66 30 -11.32 30 -12 30 C-9.8197371 23.12052968 -7.19745965 16.54944102 -4.3125 9.9375 C-3.89677734 8.97650391 -3.48105469 8.01550781 -3.05273438 7.02539062 C-2.03848513 4.68212514 -1.02085998 2.34039113 0 0 Z " fill="#1F4E8E" transform="translate(345,286)"/>
<path d="M0 0 C2 4 2 4 4 16 C-7.55 16 -19.1 16 -31 16 C-31 15.34 -31 14.68 -31 14 C-20.44 14 -9.88 14 1 14 C0.67 12.68 0.34 11.36 0 10 C-0.06624507 8.25113019 -0.08552595 6.49997252 -0.0625 4.75 C-0.05347656 3.85796875 -0.04445313 2.9659375 -0.03515625 2.046875 C-0.02355469 1.37140625 -0.01195312 0.6959375 0 0 Z " fill="#134081" transform="translate(646,332)"/>
<path d="M0 0 C6.27 0.66 12.54 1.32 19 2 C19 2.33 19 2.66 19 3 C18.44127197 3.0093457 17.88254395 3.01869141 17.30688477 3.02832031 C14.72459677 3.08268988 12.14399402 3.16619709 9.5625 3.25 C8.24475586 3.27126953 8.24475586 3.27126953 6.90039062 3.29296875 C0.42838122 3.53178829 -4.25082229 5.12206989 -10 8 C-10.99 8.33 -11.98 8.66 -13 9 C-14.20882096 11.00016466 -14.20882096 11.00016466 -15 13 C-14.67 11.02 -14.34 9.04 -14 7 C-13.01 7 -12.02 7 -11 7 C-10.814375 6.38125 -10.62875 5.7625 -10.4375 5.125 C-8.25965087 1.90557084 -5.69405038 1.72561704 -2 1 C-1.34 1.33 -0.68 1.66 0 2 C0 1.34 0 0.68 0 0 Z " fill="#C8DDE8" transform="translate(503,273)"/>
<path d="M0 0 C2.50197845 2.50197845 2.48729021 3.87418879 3 7.33984375 C3.165 8.40267578 3.33 9.46550781 3.5 10.56054688 C3.665 11.67494141 3.83 12.78933594 4 13.9375 C4.32652073 16.13513758 4.65956721 18.33181824 5 20.52734375 C5.144375 21.50437256 5.28875 22.48140137 5.4375 23.48803711 C5.89332994 26.22942927 5.89332994 26.22942927 8 29 C8.1953125 31.69921875 8.1953125 31.69921875 8.125 34.6875 C8.10695313 35.68136719 8.08890625 36.67523438 8.0703125 37.69921875 C8.03550781 38.83810547 8.03550781 38.83810547 8 40 C4.99161576 34.71696364 4.12785492 28.60144143 2.8034668 22.72827148 C2.31435286 20.57067342 1.80899368 18.4173024 1.30273438 16.26367188 C0.98858101 14.88564479 0.67539744 13.50739618 0.36328125 12.12890625 C0.07751221 10.88181885 -0.20825684 9.63473145 -0.50268555 8.34985352 C-0.9768085 5.15621527 -0.87608499 3.0756175 0 0 Z " fill="#235092" transform="translate(694,358)"/>
<path d="M0 0 C0.33 0 0.66 0 1 0 C1 2.64 1 5.28 1 8 C20.305 8.495 20.305 8.495 40 9 C40 7.68 40 6.36 40 5 C40.99 5 41.98 5 43 5 C43 6.65 43 8.3 43 10 C28.48 10 13.96 10 -1 10 C-0.67 6.7 -0.34 3.4 0 0 Z " fill="#E3F7FC" transform="translate(355,395)"/>
<path d="M0 0 C-1.35108361 3.09010211 -2.79017933 4.96910153 -5.375 7.125 C-6.25285156 7.87136719 -6.25285156 7.87136719 -7.1484375 8.6328125 C-10.1866411 10.87621178 -12.17755971 12 -16 12 C-16 11.01 -16 10.02 -16 9 C-15.01 8.34 -14.02 7.68 -13 7 C-12.67 6.01 -12.34 5.02 -12 4 C-8.9375 2.3125 -8.9375 2.3125 -6 1 C-6 1.66 -6 2.32 -6 3 C-5.38125 2.505 -4.7625 2.01 -4.125 1.5 C-2 0 -2 0 0 0 Z " fill="#07459B" transform="translate(745,515)"/>
<path d="M0 0 C5.445 1.485 5.445 1.485 11 3 C10.23945318 12.43078051 8.61328437 21.68556572 7 31 C6.67 31 6.34 31 6 31 C5.61936779 28.6739143 5.28730055 26.33944736 5 24 C5.33 23.67 5.66 23.34 6 23 C6.21287397 21.31770434 6.3697671 19.62820205 6.5 17.9375 C6.8839376 13.26930634 7.38674858 8.64318934 8 4 C5.69 3.67 3.38 3.34 1 3 C0.67 2.01 0.34 1.02 0 0 Z " fill="#DCF1FB" transform="translate(544,245)"/>
<path d="M0 0 C7.94097929 3.85017178 12.32365886 10.73894261 15.46875 18.703125 C16 21 16 21 15 25 C14.01 22.03 13.02 19.06 12 16 C11.34 16 10.68 16 10 16 C9.67 14.02 9.34 12.04 9 10 C7.35 9.67 5.7 9.34 4 9 C3.67 7.35 3.34 5.7 3 4 C1.68 4 0.36 4 -1 4 C-0.67 2.68 -0.34 1.36 0 0 Z " fill="#174787" transform="translate(736,125)"/>
<path d="M0 0 C0.66 1.32 1.32 2.64 2 4 C22.295 4.495 22.295 4.495 43 5 C43.33 3.35 43.66 1.7 44 0 C44.66 0 45.32 0 46 0 C45.34 1.98 44.68 3.96 44 6 C29.15 6 14.3 6 -1 6 C-0.67 4.02 -0.34 2.04 0 0 Z " fill="#E8FBFD" transform="translate(548,399)"/>
<path d="M0 0 C0.99 0 1.98 0 3 0 C0.91932667 6.76296354 -1.73249736 13.13878613 -4.6875 19.5625 C-5.10322266 20.47580078 -5.51894531 21.38910156 -5.94726562 22.33007812 C-6.96082902 24.55525752 -7.97845216 26.77847781 -9 29 C-9.99 28.67 -10.98 28.34 -12 28 C-10.80858104 24.64236474 -9.26451741 21.64389914 -7.5 18.5625 C-5.5503746 15.12333778 -4.07845467 11.82361202 -3 8 C-2.34 8 -1.68 8 -1 8 C-0.67 5.36 -0.34 2.72 0 0 Z " fill="#1B4A8B" transform="translate(601,273)"/>
<path d="M0 0 C0.66 0.33 1.32 0.66 2 1 C2.4140625 3.06640625 2.4140625 3.06640625 2.625 5.5625 C2.69976563 6.38878906 2.77453125 7.21507812 2.8515625 8.06640625 C2.90054688 8.70449219 2.94953125 9.34257812 3 10 C2.34 10 1.68 10 1 10 C1.10699219 10.70125 1.21398437 11.4025 1.32421875 12.125 C2.1620712 18.75574623 1.85573906 22.94583319 -1 29 C-3 27 -3 27 -3.046875 25.1875 C-2.94890625 24.465625 -2.8509375 23.74375 -2.75 23 C-2.64300781 22.19691406 -2.53601563 21.39382813 -2.42578125 20.56640625 C-2.00064601 18.00389386 -1.48305149 15.47686558 -0.9375 12.9375 C-0.00431646 8.52043126 0.16687642 4.50566336 0 0 Z " fill="#1B4B8D" transform="translate(554,246)"/>
<path d="M0 0 C0.96813629 0.00424484 1.93627258 0.00848969 2.93374634 0.01286316 C6.01080723 0.02958919 9.08720122 0.06723044 12.1640625 0.10546875 C14.25650092 0.12052343 16.34894967 0.13421046 18.44140625 0.14648438 C23.55754668 0.17947287 28.67319171 0.23121347 33.7890625 0.29296875 C33.7890625 0.62296875 33.7890625 0.95296875 33.7890625 1.29296875 C32.11118652 1.3069873 32.11118652 1.3069873 30.39941406 1.32128906 C26.19443942 1.36157775 21.99016694 1.42743819 17.78564453 1.50048828 C15.97616694 1.52847487 14.16657216 1.54979873 12.35693359 1.56396484 C1.80365495 1.6514713 -7.41748402 1.94865477 -17.2109375 6.29296875 C-16.2109375 3.29296875 -16.2109375 3.29296875 -13.78662109 1.6237793 C-9.07238553 -0.13078154 -4.9857776 -0.08287798 0 0 Z " fill="#0F3F7C" transform="translate(633.2109375,243.70703125)"/>
<path d="M0 0 C0.66 0.99 1.32 1.98 2 3 C1.25 5.625 1.25 5.625 0 9 C-0.73195052 11.98635813 -1.37131927 14.99035821 -2 18 C-2.66 18 -3.32 18 -4 18 C-4 17.01 -4 16.02 -4 15 C-5.32 18.3 -6.64 21.6 -8 25 C-8.66 25 -9.32 25 -10 25 C-8.30387431 19.55454384 -6.10842318 14.36525793 -3.875 9.125 C-3.50246094 8.24585938 -3.12992187 7.36671875 -2.74609375 6.4609375 C-1.83276472 4.30641773 -0.91735068 2.15280976 0 0 Z " fill="#20518D" transform="translate(326,330)"/>
<path d="M0 0 C0.66 0.33 1.32 0.66 2 1 C-1.3 9.58 -4.6 18.16 -8 27 C-9.18414294 23.44757118 -8.69535532 22.30169438 -7.5625 18.8125 C-7.27503906 17.91144531 -6.98757813 17.01039063 -6.69140625 16.08203125 C-6.46324219 15.39496094 -6.23507812 14.70789063 -6 14 C-5.34 14 -4.68 14 -4 14 C-4.04640625 13.32453125 -4.0928125 12.6490625 -4.140625 11.953125 C-4.43910806 4.57632933 -4.43910806 4.57632933 -2 1.375 C-1.34 0.92125 -0.68 0.4675 0 0 Z " fill="#1E4D84" transform="translate(302,277)"/>
<path d="M0 0 C0.94151634 3.23602654 0.81505441 5.4813936 0.26171875 8.80859375 C-0.5315139 15.45043726 -0.45237229 22.46432468 1 29 C0.34 29 -0.32 29 -1 29 C-4.56372676 19.19975141 -3.58614667 9.64844222 0 0 Z " fill="#D4E8F6" transform="translate(445,278)"/>
<path d="M0 0 C3.3 0 6.6 0 10 0 C10 0.66 10 1.32 10 2 C18.32485153 2.79850617 26.65674459 3.42754306 35 4 C35 4.33 35 4.66 35 5 C26.55111312 5.3364601 18.53374512 5.00480239 10.1875 3.625 C9.4052002 3.49891357 8.62290039 3.37282715 7.81689453 3.24291992 C2.25940801 2.25940801 2.25940801 2.25940801 0 0 Z " fill="#355F9C" transform="translate(448,369)"/>
<path d="M0 0 C0.66 0 1.32 0 2 0 C2.85799828 4.52399095 3.3295718 7.04597637 1.8125 11.4375 C0 14 0 14 -2.1875 14.875 C-3.0846875 14.936875 -3.0846875 14.936875 -4 15 C-3.43179252 9.54520815 -2.05362055 5.08940744 0 0 Z " fill="#1A4E91" transform="translate(636,290)"/>
<path d="M0 0 C2 2 2 2 2 6 C2.66 6 3.32 6 4 6 C4.06058594 6.63808594 4.12117188 7.27617187 4.18359375 7.93359375 C4.26738281 8.75988281 4.35117187 9.58617187 4.4375 10.4375 C4.51871094 11.26121094 4.59992188 12.08492188 4.68359375 12.93359375 C4.78930815 14.98662025 4.78930815 14.98662025 6 16 C6.23678716 18.69235776 6.42198025 21.36498156 6.5625 24.0625 C6.60568359 24.82111328 6.64886719 25.57972656 6.69335938 26.36132812 C6.79973633 28.24065438 6.90039934 30.12030244 7 32 C6.67 32 6.34 32 6 32 C5.18209731 28.16779918 4.37166387 24.33405471 3.5625 20.5 C3.33240234 19.42234375 3.10230469 18.3446875 2.86523438 17.234375 C1.65823466 11.49675315 0.61572225 5.83166818 0 0 Z " fill="#2F4C57" transform="translate(259,282)"/>
<path d="M0 0 C0.66 0.33 1.32 0.66 2 1 C-0.02392461 7.27444779 -2.26976993 13.42984439 -4.6875 19.5625 C-5.00783203 20.38041016 -5.32816406 21.19832031 -5.65820312 22.04101562 C-6.43678254 24.02813622 -7.21809845 26.01418427 -8 28 C-9.19297098 24.42108705 -8.69377582 23.01907887 -7.6875 19.4375 C-7.42324219 18.46683594 -7.15898437 17.49617188 -6.88671875 16.49609375 C-6 14 -6 14 -4 12 C-3.23323689 9.97955123 -2.53204614 7.93374458 -1.875 5.875 C-1.52179688 4.77929688 -1.16859375 3.68359375 -0.8046875 2.5546875 C-0.53914063 1.71164062 -0.27359375 0.86859375 0 0 Z " fill="#1A4989" transform="translate(291,304)"/>
<path d="M0 0 C0.33 0 0.66 0 1 0 C0.51510352 6.59714419 -0.27195957 13.00885339 -1.59765625 19.4921875 C-2.00626303 22.03903752 -2.06921199 24.42531411 -2 27 C-2.66 27 -3.32 27 -4 27 C-4.26700159 17.40277631 -3.99726829 8.85109408 0 0 Z " fill="#084486" transform="translate(427,373)"/>
<path d="M0 0 C4.34170523 2.3836813 8.2064129 4.78119883 12 8 C10.02 8 8.04 8 6 8 C5.67 8.99 5.34 9.98 5 11 C4.34 11 3.68 11 3 11 C3 10.01 3 9.02 3 8 C2.34 8 1.68 8 1 8 C1.020625 7.236875 1.04125 6.47375 1.0625 5.6875 C1.12942841 2.89814214 1.12942841 2.89814214 0 0 Z " fill="#FCF9E0" transform="translate(212,268)"/>
<path d="M0 0 C-1.40385636 4.20402145 -3.40087599 6.92189207 -6.375 10.1875 C-7.14585937 11.04730469 -7.91671875 11.90710938 -8.7109375 12.79296875 C-10.77685184 14.78484862 -12.3704081 15.92534943 -15 17 C-15 14 -15 14 -13.5625 12.4375 C-13.046875 11.963125 -12.53125 11.48875 -12 11 C-11.67 10.34 -11.34 9.68 -11 9 C-9.68 9 -8.36 9 -7 9 C-6.9175 8.2575 -6.835 7.515 -6.75 6.75 C-5.79113195 3.23415048 -3.97054162 0 0 0 Z " fill="#D7EDF7" transform="translate(543,375)"/>
<path d="M0 0 C1.43743851 2.710751 2.47267164 5.30227928 3.2890625 8.2578125 C3.50820312 9.04800781 3.72734375 9.83820313 3.953125 10.65234375 C4.17484375 11.46832031 4.3965625 12.28429687 4.625 13.125 C4.85445312 13.94871094 5.08390625 14.77242188 5.3203125 15.62109375 C7 21.72995722 7 21.72995722 7 24 C6.01 24 5.02 24 4 24 C3.67 20.04 3.34 16.08 3 12 C2.34 12 1.68 12 1 12 C0.01751476 7.9472484 -0.08159574 4.16138263 0 0 Z " fill="#29548D" transform="translate(225,324)"/>
<path d="M0 0 C4.95149772 1.26421218 9.37442933 2.98705181 13.984375 5.1953125 C16.10264324 6.18538498 16.10264324 6.18538498 19 6 C19 7.65 19 9.3 19 11 C15.3029088 9.59510534 11.85252297 7.94496078 8.375 6.0625 C7.43398438 5.55847656 6.49296875 5.05445313 5.5234375 4.53515625 C3.30471447 3.18537583 1.71428585 1.92713342 0 0 Z " fill="#D2E7F4" transform="translate(461,327)"/>
<path d="M0 0 C0.33 0 0.66 0 1 0 C1.33 2.97 1.66 5.94 2 9 C1.01 9.33 0.02 9.66 -1 10 C-2.23277127 11.86022072 -2.23277127 11.86022072 -3.1875 14.0625 C-3.53167969 14.79597656 -3.87585938 15.52945312 -4.23046875 16.28515625 C-4.48441406 16.85105469 -4.73835937 17.41695313 -5 18 C-5.66 18 -6.32 18 -7 18 C-5.06375702 11.79522136 -2.74390859 5.89174281 0 0 Z " fill="#DEEFF8" transform="translate(605,270)"/>
<path d="M0 0 C1.66666667 1.66666667 3.33333333 3.33333333 5 5 C5.53625 5.45375 6.0725 5.9075 6.625 6.375 C8.79669497 8.94154861 9.76543874 11.88420254 11 15 C10.01 15.33 9.02 15.66 8 16 C7.4121875 14.6696875 7.4121875 14.6696875 6.8125 13.3125 C5.15839028 9.89134973 5.15839028 9.89134973 2.3125 7.4375 C0 5 0 5 -0.3125 2.1875 C-0.209375 1.465625 -0.10625 0.74375 0 0 Z " fill="#FEF1C8" transform="translate(251,302)"/>
<path d="M0 0 C0.66 0.33 1.32 0.66 2 1 C-0.07042054 8.60837466 -2.85830477 15.7728592 -6 23 C-6.66 21.68 -7.32 20.36 -8 19 C-7.01 18.67 -6.02 18.34 -5 18 C-5.0825 17.175 -5.165 16.35 -5.25 15.5 C-4.96937375 11.57123246 -3.8663242 9.30978299 -1.97265625 5.9296875 C-0.98177096 3.96383475 -0.45337523 2.1475669 0 0 Z " fill="#1C498B" transform="translate(314,245)"/>
<path d="M0 0 C0 3 0 3 -1 5 C-1.66 5 -2.32 5 -3 5 C-3.103125 5.556875 -3.20625 6.11375 -3.3125 6.6875 C-4.14178408 9.4769101 -5.34299056 11.6139064 -7 14 C-7.66 14 -8.32 14 -9 14 C-9.33 15.65 -9.66 17.3 -10 19 C-11 16 -11 16 -10.21484375 13.73046875 C-7.4230604 8.17251473 -4.66727867 4.12457185 0 0 Z " fill="#1B4C8A" transform="translate(126,127)"/>
<path d="M0 0 C2.72574271 0.37330824 3.80822085 0.79194601 5.703125 2.84765625 C6.21359375 3.57855469 6.7240625 4.30945313 7.25 5.0625 C8.03117188 6.16271484 8.03117188 6.16271484 8.828125 7.28515625 C9.21484375 7.85105469 9.6015625 8.41695313 10 9 C8.75 10.5 8.75 10.5 7 12 C5.68 12 4.36 12 3 12 C3 11.01 3 10.02 3 9 C3.99 9 4.98 9 6 9 C5.67 7.35 5.34 5.7 5 4 C4.360625 3.896875 3.72125 3.79375 3.0625 3.6875 C2.381875 3.460625 1.70125 3.23375 1 3 C0.67 2.01 0.34 1.02 0 0 Z " fill="#E0F0F8" transform="translate(534,324)"/>
<path d="M0 0 C2.73704754 2.73704754 3.16182449 5.26044774 4 9 C3.625 11.4375 3.625 11.4375 3 13 C2.34 12.01 1.68 11.02 1 10 C0.34 10.66 -0.32 11.32 -1 12 C-1 10.68 -1 9.36 -1 8 C-1.66 8 -2.32 8 -3 8 C-2.67 6.68 -2.34 5.36 -2 4 C-1.34 4 -0.68 4 0 4 C0 2.68 0 1.36 0 0 Z " fill="#01459B" transform="translate(425,360)"/>
<path d="M0 0 C1.125 1.5625 1.125 1.5625 2 4 C0.9005041 9.22260554 -1.06992791 12.60489186 -4 17 C-4.66 17 -5.32 17 -6 17 C-4.33846988 11.14340094 -2.52958084 5.5409866 0 0 Z " fill="#D9EDF6" transform="translate(299,289)"/>
<path d="M0 0 C1.0828125 0.495 1.0828125 0.495 2.1875 1 C5.01697427 2.00603529 7.02895466 2.16977402 10 2 C9.67 2.99 9.34 3.98 9 5 C11.05233685 7.2477975 12.00667261 8.0022242 15 9 C14.67 10.32 14.34 11.64 14 13 C13.49210938 12.55269531 12.98421875 12.10539062 12.4609375 11.64453125 C9.17553374 8.75903619 5.88844484 5.88925763 2.5 3.125 C1.675 2.42375 0.85 1.7225 0 1 C0 0.67 0 0.34 0 0 Z " fill="#F3B72E" transform="translate(229,279)"/>
<path d="M0 0 C4.45595815 6.68393723 4.25364533 13.20745184 4 21 C3.34 21.33 2.68 21.66 2 22 C1.93941406 21.10796875 1.87882813 20.2159375 1.81640625 19.296875 C1.73261719 18.12640625 1.64882813 16.9559375 1.5625 15.75 C1.48128906 14.58984375 1.40007813 13.4296875 1.31640625 12.234375 C1.06631746 9.67791179 0.65953329 7.46225761 0 5 C-0.03786901 3.33376361 -0.04627845 1.66602403 0 0 Z " fill="#CBE6F5" transform="translate(545,336)"/>
<path d="M0 0 C0.66 0 1.32 0 2 0 C1.41993763 7.75451806 0.37559416 15.34742277 -1 23 C-1.33 23 -1.66 23 -2 23 C-1.86183041 19.35383329 -1.71318466 15.70816926 -1.5625 12.0625 C-1.50352539 10.50112305 -1.50352539 10.50112305 -1.44335938 8.90820312 C-1.40146484 7.91884766 -1.35957031 6.92949219 -1.31640625 5.91015625 C-1.27974854 4.99371338 -1.24309082 4.07727051 -1.20532227 3.13305664 C-1 1 -1 1 0 0 Z " fill="#1A4A8A" transform="translate(365,325)"/>
<path d="M0 0 C2.24038256 4.15217568 3.50074598 8.53882619 4.90234375 13.02734375 C5.982192 15.95177263 7.31150305 18.38788079 9 21 C8.34 21.33 7.68 21.66 7 22 C6.731875 21.401875 6.46375 20.80375 6.1875 20.1875 C5.1439989 17.98226124 5.1439989 17.98226124 3.5 16.625 C-0.3797363 12.42195235 -0.19473235 7.14341451 -0.0703125 1.7578125 C-0.04710937 1.17773438 -0.02390625 0.59765625 0 0 Z " fill="#20518D" transform="translate(441,296)"/>
<path d="M0 0 C3.9063291 0.57871542 5.97929406 2.5687001 9 5 C10.65816784 5.68753301 12.32459336 6.35561283 14 7 C15.36365283 7.95824253 16.70794169 8.94721175 18 10 C16.34765625 10.69921875 16.34765625 10.69921875 14 11 C11.30859375 9.70703125 11.30859375 9.70703125 8.4375 7.8125 C7.48746094 7.20019531 6.53742188 6.58789062 5.55859375 5.95703125 C3.1727781 4.13215546 1.64101191 2.49190698 0 0 Z " fill="#205089" transform="translate(489,294)"/>
<path d="M0 0 C2.21454972 3.32182457 3.04618501 6.16421335 4.125 10 C4.47820312 11.2375 4.83140625 12.475 5.1953125 13.75 C6 17 6 17 6 20 C5.34 20 4.68 20 4 20 C2.24783978 15.99069015 1.2290595 12.02429697 0.3125 7.75 C0.04050781 6.50734375 -0.23148438 5.2646875 -0.51171875 3.984375 C-0.67285156 2.99953125 -0.83398438 2.0146875 -1 1 C-0.67 0.67 -0.34 0.34 0 0 Z " fill="#234D8C" transform="translate(209,267)"/>
<path d="M0 0 C1.65 0.33 3.3 0.66 5 1 C4.06409496 2.1055189 3.12620142 3.20935453 2.1875 4.3125 C1.66542969 4.92738281 1.14335937 5.54226563 0.60546875 6.17578125 C-2.3373102 9.51952278 -2.3373102 9.51952278 -4 11 C-4.66 11 -5.32 11 -6 11 C-6 10.01 -6 9.02 -6 8 C-5.01 8 -4.02 8 -3 8 C-2.67 6.35 -2.34 4.7 -2 3 C-1.34 3 -0.68 3 0 3 C0 2.01 0 1.02 0 0 Z " fill="#144691" transform="translate(454,258)"/>
<path d="M0 0 C5.61 0 11.22 0 17 0 C17 0.33 17 0.66 17 1 C12.05 1 7.1 1 2 1 C2 2.65 2 4.3 2 6 C4.97 6.495 4.97 6.495 8 7 C8 7.33 8 7.66 8 8 C5.66705225 8.04241723 3.33297433 8.04092937 1 8 C0.67 7.67 0.34 7.34 0 7 C0 4.69 0 2.38 0 0 Z " fill="#224671" transform="translate(162,243)"/>
<path d="M0 0 C0.33 0 0.66 0 1 0 C0.67 5.28 0.34 10.56 0 16 C-3.375 11.5 -3.375 11.5 -3.6875 7.25 C-3.75324219 6.45078125 -3.81898438 5.6515625 -3.88671875 4.828125 C-3.92410156 4.22484375 -3.96148437 3.6215625 -4 3 C-3.01 3.33 -2.02 3.66 -1 4 C-0.67 2.68 -0.34 1.36 0 0 Z " fill="#15427B" transform="translate(261,268)"/>
<path d="M0 0 C3.82622743 1.5588334 6.25147379 3.95433582 9 7 C9.33 7.99 9.66 8.98 10 10 C10.66 10 11.32 10 12 10 C12 10.66 12 11.32 12 12 C10.68 12 9.36 12 8 12 C8 12.66 8 13.32 8 14 C7.34 14 6.68 14 6 14 C6.33 11.69 6.66 9.38 7 7 C6.401875 6.731875 5.80375 6.46375 5.1875 6.1875 C3.00152146 5.00082594 1.58667406 3.90400887 0 2 C0 1.34 0 0.68 0 0 Z " fill="#FDF2C7" transform="translate(236,286)"/>
<path d="M0 0 C2.58145619 1.29072809 2.67974178 2.19199435 3.625 4.875 C5.35022174 10.25873216 5.2825932 15.40046809 5 21 C2.71834868 17.57752301 2.11395404 14.45868234 1.375 10.5 C1.17390625 9.48486328 1.17390625 9.48486328 0.96875 8.44921875 C0.41463173 5.58250483 0 2.92668715 0 0 Z " fill="#1B4C85" transform="translate(668,246)"/>
<path d="M0 0 C4.29 0.99 8.58 1.98 13 3 C13 3.33 13 3.66 13 4 C10.69 4 8.38 4 6 4 C6 4.66 6 5.32 6 6 C3.03 5.505 3.03 5.505 0 5 C0 3.35 0 1.7 0 0 Z " fill="#164890" transform="translate(427,400)"/>
<path d="M0 0 C0.99 0.33 1.98 0.66 3 1 C-0.96 9.91 -0.96 9.91 -5 19 C-6.06865997 14.72536011 -6.00970597 14.2951675 -4.1875 10.625 C-2.52127454 7.13688096 -1.1393698 3.70295186 0 0 Z " fill="#D8EFF8" transform="translate(310,362)"/>
<path d="M0 0 C0.63615234 0.56267578 0.63615234 0.56267578 1.28515625 1.13671875 C5.36517338 4.69664579 9.5513476 7.91317997 14 11 C13.67 11.66 13.34 12.32 13 13 C7.43820225 11.64044944 7.43820225 11.64044944 5.375 8.625 C4.92125 7.75875 4.4675 6.8925 4 6 C3.278125 5.278125 2.55625 4.55625 1.8125 3.8125 C1.214375 3.214375 0.61625 2.61625 0 2 C0 1.34 0 0.68 0 0 Z " fill="#144483" transform="translate(451,319)"/>
<path d="M0 0 C2.0625 1.6875 2.0625 1.6875 4 4 C3.75 6.75 3.75 6.75 3 9 C3.66 9 4.32 9 5 9 C5.33 12.96 5.66 16.92 6 21 C4.14224088 17.28448176 3.00545557 13.91921572 1.875 9.9375 C1.52179688 8.70902344 1.16859375 7.48054688 0.8046875 6.21484375 C0 3 0 3 0 0 Z " fill="#E4F5FA" transform="translate(210,267)"/>
<path d="M0 0 C0.66 0.99 1.32 1.98 2 3 C3.65816784 3.68753301 5.32459336 4.35561283 7 5 C7.33 5.66 7.66 6.32 8 7 C8.99 7.33 9.98 7.66 11 8 C11.33 8.99 11.66 9.98 12 11 C8.04093183 9.56691865 4.71281819 7.66858051 1.1875 5.375 C0.21167969 4.74335938 -0.76414063 4.11171875 -1.76953125 3.4609375 C-2.50558594 2.97882813 -3.24164063 2.49671875 -4 2 C-2.68 1.34 -1.36 0.68 0 0 Z " fill="#E9B739" transform="translate(212,264)"/>
<path d="M0 0 C0.66 0 1.32 0 2 0 C5.3912715 3.61006321 7.38618356 7.32842608 9 12 C8.6875 14.4375 8.6875 14.4375 8 16 C4.90566277 13.46826954 3.95849206 10.83396824 3 7 C3.33 6.01 3.66 5.02 4 4 C3.01 3.67 2.02 3.34 1 3 C0.67 2.01 0.34 1.02 0 0 Z " fill="#D4A734" transform="translate(246,248)"/>
<path d="M0 0 C4.62 2.31 9.24 4.62 14 7 C9.12573726 8.21856569 8.30417259 7.19600642 4 5 C1.24853726 4.74715633 1.24853726 4.74715633 -1 5 C-0.67 3.35 -0.34 1.7 0 0 Z " fill="#1B508E" transform="translate(480,338)"/>
<path d="M0 0 C1.04239682 3.12719046 0.97104316 4.29258274 0.44140625 7.44921875 C0.30283203 8.29677734 0.16425781 9.14433594 0.02148438 10.01757812 C-0.12998047 10.89865234 -0.28144531 11.77972656 -0.4375 12.6875 C-0.58509766 13.58017578 -0.73269531 14.47285156 -0.88476562 15.39257812 C-1.25007381 17.59621137 -1.62204888 19.798506 -2 22 C-4.19328383 18.71007426 -4.21703529 18.43015683 -3.57421875 14.8046875 C-3.43693359 14.00675781 -3.29964844 13.20882813 -3.15820312 12.38671875 C-3.00287109 11.55785156 -2.84753906 10.72898437 -2.6875 9.875 C-2.54376953 9.03839844 -2.40003906 8.20179688 -2.25195312 7.33984375 C-1.1541718 1.1541718 -1.1541718 1.1541718 0 0 Z " fill="#D6ECF5" transform="translate(411,319)"/>
<path d="M0 0 C2.09873235 1.73373542 2.96490929 2.89974084 3.875 5.5 C4 8 4 8 2.5625 9.8125 C2.046875 10.204375 1.53125 10.59625 1 11 C0.01 10.67 -0.98 10.34 -2 10 C-2 8.35 -2 6.7 -2 5 C-1.34 4.67 -0.68 4.34 0 4 C0 2.68 0 1.36 0 0 Z " fill="#EFF5EB" transform="translate(266,326)"/>
<path d="M0 0 C0.33 0 0.66 0 1 0 C1.37634203 6.80203375 0.77471079 11.75690073 -2 18 C-3.23853632 14.38905609 -2.79209453 11.59428048 -2.125 7.875 C-1.85042969 6.29332031 -1.85042969 6.29332031 -1.5703125 4.6796875 C-1 2 -1 2 0 0 Z " fill="#D6EAF7" transform="translate(381,246)"/>
<path d="M0 0 C1.1055189 0.93590504 2.20935453 1.87379858 3.3125 2.8125 C3.92738281 3.33457031 4.54226563 3.85664063 5.17578125 4.39453125 C6.85424679 5.87172469 8.43882034 7.40039131 10 9 C7 10 7 10 5.17578125 9.22265625 C3.45052083 8.1484375 1.72526042 7.07421875 0 6 C0 4.02 0 2.04 0 0 Z " fill="#E0F2FB" transform="translate(488,293)"/>
<path d="M0 0 C2.64 0 5.28 0 8 0 C4.18302512 2.54464992 0.35577041 4.54807653 -4 6 C-5.20882096 8.00016466 -5.20882096 8.00016466 -6 10 C-5.67 8.02 -5.34 6.04 -5 4 C-4.01 4 -3.02 4 -2 4 C-1.34 2.68 -0.68 1.36 0 0 Z " fill="#D9EFF9" transform="translate(494,276)"/>
<path d="M0 0 C0.33 0 0.66 0 1 0 C1.6319296 6.00333124 -0.62455877 10.63404795 -3 16 C-3.99 15.67 -4.98 15.34 -6 15 C-4.02 10.05 -2.04 5.1 0 0 Z " fill="#224F8D" transform="translate(360,251)"/>
<path d="M0 0 C0.33 0 0.66 0 1 0 C1.66 4.29 2.32 8.58 3 13 C2.34 13 1.68 13 1 13 C0.67 13.99 0.34 14.98 0 16 C-0.66 15.01 -1.32 14.02 -2 13 C-1.67 12.34 -1.34 11.68 -1 11 C-0.7724985 9.12943209 -0.59037189 7.25314042 -0.4375 5.375 C-0.35371094 4.37210937 -0.26992188 3.36921875 -0.18359375 2.3359375 C-0.12300781 1.56507813 -0.06242188 0.79421875 0 0 Z " fill="#215095" transform="translate(659,392)"/>
<path d="M0 0 C0.33 0 0.66 0 1 0 C0.67 2.31 0.34 4.62 0 7 C-0.66 7 -1.32 7 -2 7 C-2.33 7.99 -2.66 8.98 -3 10 C-6.0625 11.1875 -6.0625 11.1875 -9 12 C-7 9.33333333 -5 6.66666667 -3 4 C-2.45988281 3.25234375 -1.91976562 2.5046875 -1.36328125 1.734375 C-0.91339844 1.16203125 -0.46351563 0.5896875 0 0 Z " fill="#174686" transform="translate(541,378)"/>
<path d="M0 0 C2.67550292 2.67550292 2.83209389 4.94879894 3.625 8.625 C4.01558594 10.40777344 4.01558594 10.40777344 4.4140625 12.2265625 C4.70410156 13.59941406 4.70410156 13.59941406 5 15 C4.34 15 3.68 15 3 15 C3 13.68 3 12.36 3 11 C2.34 11 1.68 11 1 11 C-0.20272819 8.59454362 -0.10071472 7.05003047 -0.0625 4.375 C-0.05347656 3.55773437 -0.04445312 2.74046875 -0.03515625 1.8984375 C-0.02355469 1.27195312 -0.01195312 0.64546875 0 0 Z " fill="#21508B" transform="translate(236,365)"/>
<path d="M0 0 C0.33 0 0.66 0 1 0 C1.06058594 0.74765625 1.12117187 1.4953125 1.18359375 2.265625 C1.26738281 3.25046875 1.35117187 4.2353125 1.4375 5.25 C1.51871094 6.22453125 1.59992187 7.1990625 1.68359375 8.203125 C1.95074584 10.56461753 2.35371968 12.71901065 3 15 C1.68 14.34 0.36 13.68 -1 13 C-1 13.66 -1 14.32 -1 15 C-1.66 15 -2.32 15 -3 15 C-2.01 10.05 -1.02 5.1 0 0 Z " fill="#275795" transform="translate(548,357)"/>
<path d="M0 0 C1.258125 0.12375 2.51625 0.2475 3.8125 0.375 C4.87404297 0.47941406 4.87404297 0.47941406 5.95703125 0.5859375 C8 1 8 1 11 3 C12.65549531 3.38499891 14.3222433 3.72793135 16 4 C16 4.66 16 5.32 16 6 C10.23955788 5.39363767 5.27985631 3.24341721 0 1 C0 0.67 0 0.34 0 0 Z " fill="#24518B" transform="translate(432,363)"/>
<path d="M0 0 C5.06998019 0.65419099 9.41990777 2.8546409 14 5 C10.85466353 5.8864727 9.14185588 5.91215171 6 5 C5.01 5 4.02 5 3 5 C3.33 4.67 3.66 4.34 4 4 C2.68 2.68 1.36 1.36 0 0 Z " fill="#23486A" transform="translate(190,258)"/>
<path d="M0 0 C0 0.99 0 1.98 0 3 C-1.62324086 3.22162329 -3.248721 3.42689803 -4.875 3.625 C-6.23238281 3.79902344 -6.23238281 3.79902344 -7.6171875 3.9765625 C-8.40351563 3.98429687 -9.18984375 3.99203125 -10 4 C-10.66 3.34 -11.32 2.68 -12 2 C-10.7625 1.67 -9.525 1.34 -8.25 1 C-7.55390625 0.814375 -6.8578125 0.62875 -6.140625 0.4375 C-4 0 -4 0 0 0 Z " fill="#134789" transform="translate(508,403)"/>
<path d="M0 0 C0.99 0.33 1.98 0.66 3 1 C1.68 4.63 0.36 8.26 -1 12 C-3.1519437 8.77208445 -3.20086443 7.71599191 -3 4 C-2.34 3.67 -1.68 3.34 -1 3 C-0.67 2.01 -0.34 1.02 0 0 Z " fill="#1B4783" transform="translate(276,341)"/>
<path d="M0 0 C0.33 0 0.66 0 1 0 C1.53010201 2.60259124 2.04937795 5.206557 2.5625 7.8125 C2.78969727 8.91948242 2.78969727 8.91948242 3.02148438 10.04882812 C4.11328125 15.66015625 4.11328125 15.66015625 3 19 C-1.0449982 13.10104429 -0.27748976 6.92696672 0 0 Z " fill="#D7B241" transform="translate(264,309)"/>
<path d="M0 0 C0.99 1.32 1.98 2.64 3 4 C2.25 7.375 2.25 7.375 1 11 C0.63729412 12.99488234 0.29359301 14.9937811 0 17 C-0.66 17 -1.32 17 -2 17 C-1.34 11.39 -0.68 5.78 0 0 Z " fill="#225290" transform="translate(416,293)"/>
<path d="M0 0 C1.65 0 3.3 0 5 0 C5 1.65 5 3.3 5 5 C2.69 5.33 0.38 5.66 -2 6 C-1.34 4.02 -0.68 2.04 0 0 Z " fill="#0B458B" transform="translate(363,245)"/>
<path d="M0 0 C0.66 0.33 1.32 0.66 2 1 C2 1.66 2 2.32 2 3 C2.99 3.33 3.98 3.66 5 4 C5.33 7.63 5.66 11.26 6 15 C4.10331936 12.15497903 2.76736522 9.42700115 1.375 6.3125 C0.92898438 5.31863281 0.48296875 4.32476562 0.0234375 3.30078125 C-0.31429687 2.54152344 -0.65203125 1.78226563 -1 1 C-0.67 0.67 -0.34 0.34 0 0 Z " fill="#DFF2FB" transform="translate(746,131)"/>
<path d="M0 0 C1.4540625 0.0309375 1.4540625 0.0309375 2.9375 0.0625 C0.58823382 3.58639926 -0.586112 3.86727749 -4.5 5.1875 C-5.46808594 5.52007812 -6.43617188 5.85265625 -7.43359375 6.1953125 C-8.30113281 6.48148437 -9.16867188 6.76765625 -10.0625 7.0625 C-11.0525 7.3925 -12.0425 7.7225 -13.0625 8.0625 C-13.0625 7.4025 -13.0625 6.7425 -13.0625 6.0625 C-12.42441406 5.71316406 -11.78632813 5.36382812 -11.12890625 5.00390625 C-10.30261719 4.54886719 -9.47632813 4.09382813 -8.625 3.625 C-7.80128906 3.17253906 -6.97757813 2.72007813 -6.12890625 2.25390625 C-2.30112375 0.04696171 -2.30112375 0.04696171 0 0 Z " fill="#E2F4FC" transform="translate(140.0625,117.9375)"/>
<path d="M0 0 C0.99 0.99 1.98 1.98 3 3 C3 5.5625 3 5.5625 2 8 C-0.5625 9.3125 -0.5625 9.3125 -3 10 C-2.01 6.7 -1.02 3.4 0 0 Z " fill="#DEF1F7" transform="translate(307,268)"/>
<path d="M0 0 C6.20970773 -0.33266291 10.28264895 0.54970669 16 3 C15.67 3.66 15.34 4.32 15 5 C11.48294042 4.34728444 8.10674923 3.48606976 4.6875 2.4375 C3.80449219 2.16808594 2.92148437 1.89867188 2.01171875 1.62109375 C1.34785156 1.41613281 0.68398438 1.21117188 0 1 C0 0.67 0 0.34 0 0 Z " fill="#17448A" transform="translate(720,121)"/>
<path d="M0 0 C-0.45034123 1.62723299 -0.91055354 3.25173664 -1.375 4.875 C-1.63023437 5.77992188 -1.88546875 6.68484375 -2.1484375 7.6171875 C-3 10 -3 10 -5 12 C-6.04745167 6.76274165 -6.04745167 6.76274165 -6 4 C-3.1 0 -3.1 0 0 0 Z " fill="#E0F1F8" transform="translate(601,381)"/>
<path d="M0 0 C0 0.66 0 1.32 0 2 C-0.99 2 -1.98 2 -3 2 C-3 2.66 -3 3.32 -3 4 C-4.6210103 4.69685498 -6.24696066 5.38222861 -7.875 6.0625 C-8.77992188 6.44535156 -9.68484375 6.82820312 -10.6171875 7.22265625 C-13 8 -13 8 -15 7 C-13.20856793 6.0204042 -11.41684696 5.0413367 -9.625 4.0625 C-8.62726563 3.51722656 -7.62953125 2.97195312 -6.6015625 2.41015625 C-2.15512465 0 -2.15512465 0 0 0 Z " fill="#DBF0F8" transform="translate(480,248)"/>
<path d="M0 0 C0.66 0.33 1.32 0.66 2 1 C1.34 2.65 0.68 4.3 0 6 C-2.31 5.34 -4.62 4.68 -7 4 C-4.66603411 2.44402274 -2.57343171 1.07918104 0 0 Z " fill="#E8F2F6" transform="translate(495,369)"/>
<path d="M0 0 C0.33 0 0.66 0 1 0 C1.5321441 2.08047297 2.05031786 4.16452293 2.5625 6.25 C2.85253906 7.41015625 3.14257812 8.5703125 3.44140625 9.765625 C3.95179964 12.72090983 4.02996165 14.24434101 3 17 C-0.03901852 11.17521449 -0.3540919 6.51791392 0 0 Z " fill="#D3EAF6" transform="translate(693,363)"/>
<path d="M0 0 C0.33 0 0.66 0 1 0 C1.33 2.31 1.66 4.62 2 7 C1.01 7.66 0.02 8.32 -1 9 C-1.73343428 12.06556598 -1.73343428 12.06556598 -2 15 C-4 12 -4 12 -3.57421875 9.84375 C-3.28160156 9.0703125 -2.98898437 8.296875 -2.6875 7.5 C-2.40261719 6.7265625 -2.11773438 5.953125 -1.82421875 5.15625 C-1.55222656 4.4446875 -1.28023437 3.733125 -1 3 C-0.67 2.01 -0.34 1.02 0 0 Z " fill="#1A508C" transform="translate(630,306)"/>
<path d="M0 0 C-0.66 0 -1.32 0 -2 0 C-1.67 1.65 -1.34 3.3 -1 5 C-3.4375 4.25 -3.4375 4.25 -6 3 C-6.8125 0.875 -6.8125 0.875 -7 -1 C-3.51418144 -2.2020064 -3.32007656 -2.21338437 0 0 Z " fill="#F8B118" transform="translate(231,274)"/>
<path d="M0 0 C6.13847182 1.63692582 12.04901126 3.78317598 18 6 C14.36804504 7.21065165 12.93468371 6.62784815 9.3125 5.5625 C8.31863281 5.27503906 7.32476562 4.98757812 6.30078125 4.69140625 C5.54152344 4.46324219 4.78226563 4.23507813 4 4 C4 3.34 4 2.68 4 2 C2.68 1.67 1.36 1.34 0 1 C0 0.67 0 0.34 0 0 Z " fill="#2F495A" transform="translate(172,251)"/>
<path d="M0 0 C-1.28519565 2.86697492 -2.57129254 4.97607712 -5 7 C-5.66 7 -6.32 7 -7 7 C-7.33 5.35 -7.66 3.7 -8 2 C-7.34 1.67 -6.68 1.34 -6 1 C-6 1.66 -6 2.32 -6 3 C-5.38125 2.505 -4.7625 2.01 -4.125 1.5 C-2 0 -2 0 0 0 Z " fill="#0D4388" transform="translate(745,515)"/>
<path d="M0 0 C2.1519437 3.22791555 2.20086443 4.28400809 2 8 C2.66 8 3.32 8 4 8 C4.33 8.66 4.66 9.32 5 10 C7.32156597 10.40729228 9.6568787 10.74438677 12 11 C12 11.33 12 11.66 12 12 C8.7 12 5.4 12 2 12 C0.86235649 7.73383684 0 4.43513689 0 0 Z " fill="#E2F7FD" transform="translate(660,393)"/>
<path d="M0 0 C1.5994614 3.19892281 2.42595236 5.35462576 3.125 8.75 C3.29257813 9.54921875 3.46015625 10.3484375 3.6328125 11.171875 C3.81457031 12.07679688 3.81457031 12.07679688 4 13 C2.68 12.34 1.36 11.68 0 11 C0 7.37 0 3.74 0 0 Z " fill="#1C5390" transform="translate(244,392)"/>
<path d="M0 0 C0.33 0 0.66 0 1 0 C0.03644647 11.52164009 0.03644647 11.52164009 -1 17 C-1.33 17 -1.66 17 -2 17 C-2.05418326 14.91695462 -2.09287551 12.83350232 -2.125 10.75 C-2.14820313 9.58984375 -2.17140625 8.4296875 -2.1953125 7.234375 C-2.0103949 4.17213954 -1.60823023 2.55797249 0 0 Z " fill="#D9EDF8" transform="translate(404,359)"/>
<path d="M0 0 C0.33 0 0.66 0 1 0 C1.08097324 2.27024968 1.13917704 4.54132075 1.1875 6.8125 C1.22230469 8.07707031 1.25710938 9.34164063 1.29296875 10.64453125 C1 14 1 14 -2 17 C-1.34 11.39 -0.68 5.78 0 0 Z " fill="#214E92" transform="translate(406,352)"/>
<path d="M0 0 C0.8125 1.625 0.8125 1.625 1 4 C-1.3125 7.25 -1.3125 7.25 -4 10 C-4.66 10 -5.32 10 -6 10 C-4.6302836 6.00499382 -2.74277578 3.19990508 0 0 Z " fill="#DDF0FA" transform="translate(454,264)"/>
<path d="M0 0 C0.33 0.66 0.66 1.32 1 2 C0.22265625 3.7265625 0.22265625 3.7265625 -0.9375 5.625 C-1.618125 6.73875 -2.29875 7.8525 -3 9 C-4.65 8.67 -6.3 8.34 -8 8 C-5.33333333 5.33333333 -2.66666667 2.66666667 0 0 Z " fill="#D7E8F3" transform="translate(744,517)"/>
<path d="M0 0 C1.48828125 1.14453125 1.48828125 1.14453125 3 3 C3.29296875 5.69921875 3.29296875 5.69921875 3.1875 8.6875 C3.16042969 9.68136719 3.13335938 10.67523438 3.10546875 11.69921875 C3.07066406 12.45847656 3.03585937 13.21773438 3 14 C1.20724134 10.88089144 0.65709282 8.32317572 0.375 4.75 C0.30023437 3.85796875 0.22546875 2.9659375 0.1484375 2.046875 C0.09945312 1.37140625 0.05046875 0.6959375 0 0 Z " fill="#184786" transform="translate(699,384)"/>
<path d="M0 0 C0.33 0 0.66 0 1 0 C1.08107583 1.93681161 1.13922475 3.8745934 1.1875 5.8125 C1.23970703 7.43091797 1.23970703 7.43091797 1.29296875 9.08203125 C1 12 1 12 -0.51171875 13.88671875 C-1.00285156 14.25410156 -1.49398438 14.62148438 -2 15 C-1.85816304 13.24967156 -1.71136571 11.49974466 -1.5625 9.75 C-1.48128906 8.77546875 -1.40007812 7.8009375 -1.31640625 6.796875 C-1.04925416 4.43538247 -0.64628032 2.28098935 0 0 Z " fill="#D1E9F6" transform="translate(358,378)"/>
<path d="M0 0 C1.39073768 2.62890497 2.43969204 5.12122047 3.1875 8 C3.36667969 8.66 3.54585937 9.32 3.73046875 10 C4.03576811 12.26540976 3.68136613 13.835092 3 16 C0.65229357 12.47844036 0.62330386 10.49228157 0.375 6.3125 C0.30023437 5.13300781 0.22546875 3.95351563 0.1484375 2.73828125 C0.09945312 1.83464844 0.05046875 0.93101562 0 0 Z " fill="#D1EAF6" transform="translate(675,282)"/>
<path d="M0 0 C0.66 0.33 1.32 0.66 2 1 C1.01 3.31 0.02 5.62 -1 8 C-1.99 7.67 -2.98 7.34 -4 7 C-3.6875 4.625 -3.6875 4.625 -3 2 C-2.01 1.34 -1.02 0.68 0 0 Z " fill="#0E4486" transform="translate(302,277)"/>
<path d="M0 0 C0.62390625 0.18691406 1.2478125 0.37382812 1.890625 0.56640625 C0.91533763 1.90257977 -0.06470819 3.23528135 -1.046875 4.56640625 C-1.59214844 5.30890625 -2.13742188 6.05140625 -2.69921875 6.81640625 C-3.39724609 7.68265625 -3.39724609 7.68265625 -4.109375 8.56640625 C-4.439375 8.56640625 -4.769375 8.56640625 -5.109375 8.56640625 C-5.47191276 3.12833978 -5.47191276 3.12833978 -3.859375 0.62890625 C-2.109375 -0.43359375 -2.109375 -0.43359375 0 0 Z " fill="#E4F1FB" transform="translate(122.109375,129.43359375)"/>
<path d="M0 0 C0.33 0 0.66 0 1 0 C1 2.97 1 5.94 1 9 C0.01 9 -0.98 9 -2 9 C-2 9.66 -2 10.32 -2 11 C-2.66 11 -3.32 11 -4 11 C-2.7874262 7.27566618 -1.49140021 3.62197194 0 0 Z " fill="#225591" transform="translate(301,388)"/>
<path d="M0 0 C-0.33 1.32 -0.66 2.64 -1 4 C-2.32 4 -3.64 4 -5 4 C-5.33 4.99 -5.66 5.98 -6 7 C-7.65 7 -9.3 7 -11 7 C-9.33784732 5.66104368 -7.67036393 4.32869858 -6 3 C-5.278125 2.4225 -4.55625 1.845 -3.8125 1.25 C-2 0 -2 0 0 0 Z " fill="#1F4E8A" transform="translate(532,390)"/>
<path d="M0 0 C0.99 0 1.98 0 3 0 C1.7874262 3.72433382 0.49140021 7.37802806 -1 11 C-1.66 10.67 -2.32 10.34 -3 10 C-2.67 8.02 -2.34 6.04 -2 4 C-1.34 4 -0.68 4 0 4 C0 2.68 0 1.36 0 0 Z " fill="#16458A" transform="translate(559,368)"/>
<path d="M0 0 C2.62187494 1.04874998 3.79371361 1.64931313 5.25 4.125 C5.4975 4.74375 5.745 5.3625 6 6 C5.01 6.66 4.02 7.32 3 8 C0.37613513 4.93882432 0 4.26826873 0 0 Z " fill="#11488C" transform="translate(496,348)"/>
<path d="M0 0 C0.66 0.33 1.32 0.66 2 1 C1.67 1.66 1.34 2.32 1 3 C1.39938767 5.09821215 1.39938767 5.09821215 2 7 C2.66 7 3.32 7 4 7 C4.33 8.32 4.66 9.64 5 11 C3.02 10.01 1.04 9.02 -1 8 C-1.04241723 5.66705225 -1.04092937 3.33297433 -1 1 C-0.67 0.67 -0.34 0.34 0 0 Z " fill="#054088" transform="translate(490,286)"/>
<path d="M0 0 C0.66 0.99 1.32 1.98 2 3 C1.67 3.33 1.34 3.66 1 4 C1.020625 5.134375 1.04125 6.26875 1.0625 7.4375 C1 11 1 11 -1 13 C-1.66 9.04 -2.32 5.08 -3 1 C-2.01 0.67 -1.02 0.34 0 0 Z " fill="#1D4C8E" transform="translate(676,269)"/>
<path d="M0 0 C0.33 0 0.66 0 1 0 C0.85764543 1.72945653 0.71095618 3.45855654 0.5625 5.1875 C0.48128906 6.15042969 0.40007812 7.11335938 0.31640625 8.10546875 C0.02333849 10.78649602 -0.42703754 13.3662986 -1 16 C-1.33 16 -1.66 16 -2 16 C-2.05449838 14.27119018 -2.09301688 12.54187288 -2.125 10.8125 C-2.14820313 9.84957031 -2.17140625 8.88664062 -2.1953125 7.89453125 C-1.9913544 4.87187222 -1.26874632 2.73230015 0 0 Z " fill="#224D85" transform="translate(427,373)"/>
<path d="M0 0 C1.32 0.99 2.64 1.98 4 3 C3.34 3 2.68 3 2 3 C1.67 3.99 1.34 4.98 1 6 C-0.65 5.67 -2.3 5.34 -4 5 C-3.67 4.01 -3.34 3.02 -3 2 C-2.01 2 -1.02 2 0 2 C0 1.34 0 0.68 0 0 Z " fill="#F1F6F4" transform="translate(519,312)"/>
<path d="M0 0 C0 0.66 0 1.32 0 2 C-3.96 3.32 -7.92 4.64 -12 6 C-11 3 -11 3 -8.25 1.3125 C-5.14979295 0.06049331 -3.28328088 -0.28970125 0 0 Z " fill="#224F89" transform="translate(628,244)"/>
<path d="M0 0 C0.66 0 1.32 0 2 0 C2 0.99 2 1.98 2 3 C2.61875 3.28875 3.2375 3.5775 3.875 3.875 C6 5 6 5 8 7 C7.67 7.99 7.34 8.98 7 10 C5.82739389 8.71372289 4.6620717 7.42080217 3.5 6.125 C2.8503125 5.40570312 2.200625 4.68640625 1.53125 3.9453125 C0 2 0 2 0 0 Z " fill="#154483" transform="translate(119,512)"/>
<path d="M0 0 C0.66 0 1.32 0 2 0 C2 0.66 2 1.32 2 2 C2.66 2 3.32 2 4 2 C4 5.3 4 8.6 4 12 C2.09681116 9.14521674 1.5380901 7.58058692 0.875 4.3125 C0.70742187 3.50425781 0.53984375 2.69601562 0.3671875 1.86328125 C0.24601563 1.24839844 0.12484375 0.63351562 0 0 Z " fill="#E1F3FD" transform="translate(240,376)"/>
<path d="M0 0 C2.67927341 4.01891012 2.15601248 6.24161923 2 11 C1.34 11 0.68 11 0 11 C-0.84098656 6.98195309 -1.05404945 3.98196457 0 0 Z " fill="#25559D" transform="translate(412,317)"/>
<path d="M0 0 C0.33 0 0.66 0 1 0 C1.125 6.75 1.125 6.75 0 9 C-0.66 9 -1.32 9 -2 9 C-2 9.66 -2 10.32 -2 11 C-2.66 11 -3.32 11 -4 11 C-2.7874262 7.27566618 -1.49140021 3.62197194 0 0 Z " fill="#24558B" transform="translate(332,316)"/>
<path d="M0 0 C0.66 0.99 1.32 1.98 2 3 C1.01 3.495 1.01 3.495 0 4 C-0.495 5.155 -0.99 6.31 -1.5 7.5 C-3 11 -3 11 -5 12 C-4.54738642 10.56068883 -4.08767021 9.12361001 -3.625 7.6875 C-3.24214844 6.48673828 -3.24214844 6.48673828 -2.8515625 5.26171875 C-2 3 -2 3 0 0 Z " fill="#DCF0FA" transform="translate(613,254)"/>
<path d="M0 0 C0.33 0 0.66 0 1 0 C1.33872513 1.41538717 1.67074624 2.83237963 2 4.25 C2.185625 5.03890625 2.37125 5.8278125 2.5625 6.640625 C3 9 3 9 3 13 C2.34 13 1.68 13 1 13 C-0.32229189 10.35541621 -0.09677194 8.32238699 -0.0625 5.375 C-0.05347656 4.37210938 -0.04445313 3.36921875 -0.03515625 2.3359375 C-0.02355469 1.56507813 -0.01195312 0.79421875 0 0 Z " fill="#CFE8F4" transform="translate(668,249)"/>
<path d="M0 0 C-1.2125738 3.72433382 -2.50859979 7.37802806 -4 11 C-4.33 11 -4.66 11 -5 11 C-5.36637589 4.64948454 -5.36637589 4.64948454 -3.625 1.5625 C-2 0 -2 0 0 0 Z " fill="#DDF1FA" transform="translate(320,345)"/>
<path d="M0 0 C0.99 0.99 1.98 1.98 3 3 C1.02 7.455 1.02 7.455 -1 12 C-1.33 12 -1.66 12 -2 12 C-2.21278058 7.53160785 -1.59138085 4.17737474 0 0 Z " fill="#1D4D8B" transform="translate(571,340)"/>
<path d="M0 0 C1.67110042 2.96178773 2.32682752 5.37071192 2.625 8.75 C2.69976563 9.54921875 2.77453125 10.3484375 2.8515625 11.171875 C2.90054688 11.77515625 2.94953125 12.3784375 3 13 C0.75393573 11.22555028 0.04918998 10.41647515 -0.29296875 7.51953125 C-0.25816406 6.62621094 -0.22335937 5.73289062 -0.1875 4.8125 C-0.16042969 3.91144531 -0.13335938 3.01039063 -0.10546875 2.08203125 C-0.07066406 1.39496094 -0.03585937 0.70789063 0 0 Z " fill="#2B588F" transform="translate(646,332)"/>
<path d="M0 0 C2.51699845 2.51699845 3.10964078 4.57554146 4 8 C3.67 9.32 3.34 10.64 3 12 C2.01 9.03 1.02 6.06 0 3 C-0.66 3 -1.32 3 -2 3 C-1 1 -1 1 0 0 Z " fill="#265492" transform="translate(748,138)"/>
<path d="M0 0 C0 0.66 0 1.32 0 2 C-2.75078884 2.91692961 -4.35948913 3.10886083 -7.1875 3.0625 C-9.0746875 3.0315625 -9.0746875 3.0315625 -11 3 C-7.75987532 -0.24012468 -4.46544827 0 0 0 Z " fill="#D4E7F4" transform="translate(499,403)"/>
<path d="M0 0 C0.99 0.33 1.98 0.66 3 1 C3.33 4.96 3.66 8.92 4 13 C2.4005386 9.80107719 1.57404764 7.64537424 0.875 4.25 C0.70742187 3.45078125 0.53984375 2.6515625 0.3671875 1.828125 C0.24601563 1.22484375 0.12484375 0.6215625 0 0 Z " fill="#DBF1FC" transform="translate(244,390)"/>
<path d="M0 0 C2.31 0 4.62 0 7 0 C7 1.65 7 3.3 7 5 C3.34683329 3.75023244 2.21934164 3.32901247 0 0 Z " fill="#E2F4FA" transform="translate(473,333)"/>
<path d="M0 0 C0.66 0 1.32 0 2 0 C4.42857143 7.42857143 4.42857143 7.42857143 3 11 C0.43383368 7.15075052 0.44902324 4.5650696 0 0 Z " fill="#255093" transform="translate(214,288)"/>
<path d="M0 0 C0.33 0 0.66 0 1 0 C1.36552803 1.41377782 1.71695495 2.83120576 2.0625 4.25 C2.25972656 5.03890625 2.45695313 5.8278125 2.66015625 6.640625 C3.01497267 9.10394822 2.76877544 10.65604132 2 13 C2 12.34 2 11.68 2 11 C1.34 11 0.68 11 0 11 C0 7.37 0 3.74 0 0 Z " fill="#C9E3F3" transform="translate(672,267)"/>
<path d="M0 0 C1.70884005 1.62339805 3.37446717 3.29319053 5 5 C5 5.66 5 6.32 5 7 C3.68 6.67 2.36 6.34 1 6 C1 5.34 1 4.68 1 4 C0.01 3.67 -0.98 3.34 -2 3 C-1.34 2.01 -0.68 1.02 0 0 Z " fill="#0C418D" transform="translate(245,242)"/>
<path d="M0 0 C3 2 3 2 3.51171875 3.9453125 C3.67447917 5.96354167 3.83723958 7.98177083 4 10 C3.34 10 2.68 10 2 10 C1.34 6.7 0.68 3.4 0 0 Z " fill="#DFF3FA" transform="translate(657,382)"/>
<path d="M0 0 C0.95465783 2.16967689 1.14401212 3.56328793 0.3984375 5.82421875 C-0.35870385 7.5684743 -1.17609198 9.28627131 -2 11 C-2.66 11 -3.32 11 -4 11 C-2.7874262 7.27566618 -1.49140021 3.62197194 0 0 Z " fill="#D0E7F5" transform="translate(597,288)"/>
<path d="M0 0 C0.66 0.66 1.32 1.32 2 2 C-2.625 5 -2.625 5 -6 5 C-6 4.01 -6 3.02 -6 2 C-4.02 1.34 -2.04 0.68 0 0 Z " fill="#1B4B85" transform="translate(735,522)"/>
<path d="M0 0 C0.185625 0.639375 0.37125 1.27875 0.5625 1.9375 C1.94246056 4.42126213 1.94246056 4.42126213 5.625 4.75 C6.73875 4.8325 7.8525 4.915 9 5 C9 5.33 9 5.66 9 6 C5.7 6 2.4 6 -1 6 C-0.67 4.02 -0.34 2.04 0 0 Z " fill="#DBF1F9" transform="translate(548,399)"/>
<path d="M0 0 C2.86724686 0.57344937 3.8614515 0.8614515 6 3 C5.625 5.125 5.625 5.125 5 7 C4.34 6.01 3.68 5.02 3 4 C2.34 4.66 1.68 5.32 1 6 C0.67 4.02 0.34 2.04 0 0 Z " fill="#0F4C9C" transform="translate(423,366)"/>
<path d="M0 0 C0.33 0 0.66 0 1 0 C1.66 2.97 2.32 5.94 3 9 C1.02 9.99 1.02 9.99 -1 11 C-0.67 7.37 -0.34 3.74 0 0 Z " fill="#205393" transform="translate(421,264)"/>
<path d="M0 0 C2.31 0.66 4.62 1.32 7 2 C6.67 2.66 6.34 3.32 6 4 C4.35 4 2.7 4 1 4 C0.67 2.68 0.34 1.36 0 0 Z " fill="#033FA4" transform="translate(190,266)"/>
<path d="M0 0 C2.78637633 4.1795645 1.79562512 6.14668677 1 11 C0.34 10.67 -0.32 10.34 -1 10 C-0.67 6.7 -0.34 3.4 0 0 Z " fill="#2C5C90" transform="translate(423,252)"/>
<path d="M0 0 C1.32 0.33 2.64 0.66 4 1 C2.92598892 3.91517292 2.22189824 5.77810176 0 8 C0 5.36 0 2.72 0 0 Z " fill="#174984" transform="translate(611,249)"/>
<path d="M0 0 C-1.625 1.5625 -1.625 1.5625 -4 3 C-7.25 2.6875 -7.25 2.6875 -10 2 C-6.19832777 -0.53444815 -4.31588991 -1.33941411 0 0 Z " fill="#DBF2FA" transform="translate(491,246)"/>
<path d="M0 0 C2.02045442 0.60183749 4.02111039 1.27306096 6 2 C6.33 2.66 6.66 3.32 7 4 C4.69 3.67 2.38 3.34 0 3 C0 2.01 0 1.02 0 0 Z " fill="#124682" transform="translate(130,522)"/>
<path d="M0 0 C0.99 0 1.98 0 3 0 C2.67 1.98 2.34 3.96 2 6 C1.01 5.67 0.02 5.34 -1 5 C-0.67 3.35 -0.34 1.7 0 0 Z " fill="#144B8E" transform="translate(749,500)"/>
<path d="M0 0 C1.45792884 -0.05399736 2.91642712 -0.09279177 4.375 -0.125 C5.18710937 -0.14820313 5.99921875 -0.17140625 6.8359375 -0.1953125 C9 0 9 0 11 2 C6.99799622 3.60080151 3.95443764 2.29279692 0 1 C0 0.67 0 0.34 0 0 Z " fill="#CFE7F5" transform="translate(428,400)"/>
<path d="M0 0 C-0.1875 1.875 -0.1875 1.875 -1 4 C-3.5625 5.25 -3.5625 5.25 -6 6 C-6 5.01 -6 4.02 -6 3 C-2.66666667 0 -2.66666667 0 0 0 Z " fill="#0A3F9A" transform="translate(538,387)"/>
<path d="M0 0 C0.66 0 1.32 0 2 0 C2.33 2.97 2.66 5.94 3 9 C2.67 8.34 2.34 7.68 2 7 C1.34 7 0.68 7 0 7 C0 4.69 0 2.38 0 0 Z " fill="#25568F" transform="translate(641,313)"/>
<path d="M0 0 C0.33 0 0.66 0 1 0 C1.25 6.625 1.25 6.625 -1 10 C-1.66 10 -2.32 10 -3 10 C-2.01 6.7 -1.02 3.4 0 0 Z " fill="#CBE1F2" transform="translate(303,278)"/>
<path d="M0 0 C1.88391785 3.26545761 2.49287967 6.28111761 3 10 C2.34 10 1.68 10 1 10 C-1.125 3.375 -1.125 3.375 0 0 Z " fill="#2F5B94" transform="translate(212,277)"/>
<path d="M0 0 C0.99 0.66 1.98 1.32 3 2 C3 2.99 3 3.98 3 5 C1.35 5.66 -0.3 6.32 -2 7 C-1.34 4.69 -0.68 2.38 0 0 Z " fill="#1B5096" transform="translate(353,267)"/>
<path d="M0 0 C0.66 0 1.32 0 2 0 C1.875 1.875 1.875 1.875 1 4 C-2.0625 5.25 -2.0625 5.25 -5 6 C-3.38405168 3.95880212 -1.7143618 1.95927063 0 0 Z " fill="#D9EAFA" transform="translate(460,258)"/>
<path d="M0 0 C3.01305957 0.38878188 4.39685311 1.26456874 7 3 C3.625 3.625 3.625 3.625 0 4 C-0.66 3.34 -1.32 2.68 -2 2 C-1.34 1.34 -0.68 0.68 0 0 Z " fill="#08427F" transform="translate(169,251)"/>
<path d="M0 0 C0.33 0 0.66 0 1 0 C1.33 2.64 1.66 5.28 2 8 C0.68 8 -0.64 8 -2 8 C-1.47731534 5.23723823 -0.89130413 2.6739124 0 0 Z " fill="#224E96" transform="translate(596,393)"/>
<path d="M0 0 C0.66 0 1.32 0 2 0 C1.46930939 3.82097239 0.50298434 6.06171403 -2 9 C-2.20140476 5.37471432 -1.85776765 3.13498292 0 0 Z " fill="#16498B" transform="translate(549,392)"/>
<path d="M0 0 C0.33 0 0.66 0 1 0 C1.6875 3.3125 1.6875 3.3125 2 7 C1.01 7.99 0.02 8.98 -1 10 C-0.67 6.7 -0.34 3.4 0 0 Z M2 2 C3 6 3 6 3 6 Z " fill="#1F5092" transform="translate(401,382)"/>
<path d="M0 0 C0.66 0.99 1.32 1.98 2 3 C0.625 6.6875 0.625 6.6875 -1 10 C-1.66 10 -2.32 10 -3 10 C-2.01 6.7 -1.02 3.4 0 0 Z " fill="#CFE2F3" transform="translate(278,342)"/>
<path d="M0 0 C0.99 0.33 1.98 0.66 3 1 C3 1.99 3 2.98 3 4 C-0.3 3.67 -3.6 3.34 -7 3 C-7 2.67 -7 2.34 -7 2 C-4.69 2 -2.38 2 0 2 C0 1.34 0 0.68 0 0 Z " fill="#1C4B8B" transform="translate(647,344)"/>
<path d="M0 0 C1.65 0.99 3.3 1.98 5 3 C4.67 3.99 4.34 4.98 4 6 C2.35 4.35 0.7 2.7 -1 1 C-0.67 0.67 -0.34 0.34 0 0 Z " fill="#D0E4F2" transform="translate(456,321)"/>
<path d="M0 0 C0.33 0 0.66 0 1 0 C0.67 2.64 0.34 5.28 0 8 C-0.99 8.33 -1.98 8.66 -3 9 C-2.01 6.03 -1.02 3.06 0 0 Z " fill="#D7EDF6" transform="translate(587,311)"/>
<path d="M0 0 C0.66 0.33 1.32 0.66 2 1 C1.01 1.66 0.02 2.32 -1 3 C-0.01 3.99 0.98 4.98 2 6 C0.35 5.67 -1.3 5.34 -3 5 C-3 4.34 -3 3.68 -3 3 C-3.66 2.67 -4.32 2.34 -5 2 C-2.625 0.9375 -2.625 0.9375 0 0 Z " fill="#245496" transform="translate(137,121)"/>
<path d="M0 0 C0 1.32 0 2.64 0 4 C-1.65 4 -3.3 4 -5 4 C-5 3.01 -5 2.02 -5 1 C-2 0 -2 0 0 0 Z " fill="#FEFFEE" transform="translate(144,114)"/>
</svg>
