<?xml version="1.0" encoding="UTF-8"?>
<svg version="1.1" xmlns="http://www.w3.org/2000/svg" width="225" height="225">
<path d="M0 0 C74.25 0 148.5 0 225 0 C225 74.25 225 148.5 225 225 C150.75 225 76.5 225 0 225 C0 150.75 0 76.5 0 0 Z " fill="#FEFEFE" transform="translate(0,0)"/>
<path d="M0 0 C5.04467402 2.81937869 7.94606028 7.02568084 9.75 12.4375 C10.30499209 19.51364912 8.8763816 24.86345912 4.375 30.3125 C0.09449493 33.77767077 -3.47162177 34.70702546 -8.9375 34.625 C-9.89011719 34.61855469 -10.84273437 34.61210937 -11.82421875 34.60546875 C-14.25 34.4375 -14.25 34.4375 -16.25 33.4375 C-16.58 38.3875 -16.91 43.3375 -17.25 48.4375 C-20.22 48.4375 -23.19 48.4375 -26.25 48.4375 C-26.34918586 43.13563441 -26.42161755 37.83431382 -26.46972656 32.53173828 C-26.48979033 30.72955919 -26.51704813 28.92744479 -26.55175781 27.12548828 C-26.60050829 24.52880864 -26.62302082 21.93299271 -26.640625 19.3359375 C-26.66127014 18.5357016 -26.68191528 17.7354657 -26.70318604 16.91098022 C-26.70561166 10.80657949 -24.98061196 7.24822771 -20.65234375 2.79296875 C-14.34548775 -2.23569776 -7.49161751 -3.32644876 0 0 Z " fill="#07CF6B" transform="translate(71.25,118.5625)"/>
<path d="M0 0 C1.67986883 0.69825873 3.31816173 1.49501836 4.9453125 2.30859375 C4.9453125 1.31859375 4.9453125 0.32859375 4.9453125 -0.69140625 C7.9153125 -0.69140625 10.8853125 -0.69140625 13.9453125 -0.69140625 C13.9453125 8.21859375 13.9453125 17.12859375 13.9453125 26.30859375 C15.2653125 26.30859375 16.5853125 26.30859375 17.9453125 26.30859375 C17.9453125 29.27859375 17.9453125 32.24859375 17.9453125 35.30859375 C10.43762019 35.67782452 10.43762019 35.67782452 7.9453125 33.80859375 C7.6153125 33.31359375 7.2853125 32.81859375 6.9453125 32.30859375 C6.1821875 32.61796875 5.4190625 32.92734375 4.6328125 33.24609375 C-0.75555236 35.37637753 -5.28837661 35.9562917 -11.0546875 35.30859375 C-16.46584295 32.60301603 -19.89510988 28.97562227 -22.3046875 23.43359375 C-23.75667905 17.38362898 -23.5126433 12.682026 -20.51171875 7.2421875 C-15.38244915 0.43524794 -8.24349169 -2.77395062 0 0 Z " fill="#0CCF6D" transform="translate(107.0546875,117.69140625)"/>
<path d="M0 0 C0.82564453 0.46792969 0.82564453 0.46792969 1.66796875 0.9453125 C1.66796875 -0.0446875 1.66796875 -1.0346875 1.66796875 -2.0546875 C4.63796875 -2.0546875 7.60796875 -2.0546875 10.66796875 -2.0546875 C10.66796875 6.8553125 10.66796875 15.7653125 10.66796875 24.9453125 C11.98796875 24.9453125 13.30796875 24.9453125 14.66796875 24.9453125 C14.66796875 27.9153125 14.66796875 30.8853125 14.66796875 33.9453125 C7.16027644 34.31454327 7.16027644 34.31454327 4.66796875 32.4453125 C4.33796875 31.9503125 4.00796875 31.4553125 3.66796875 30.9453125 C2.90484375 31.2546875 2.14171875 31.5640625 1.35546875 31.8828125 C-4.03289611 34.01309628 -8.56572036 34.59301045 -14.33203125 33.9453125 C-19.31872132 31.45196747 -22.82878599 27.95180301 -25.33203125 22.9453125 C-26.53358612 9.71104389 -26.53358612 9.71104389 -23.26953125 4.8203125 C-21.8671875 3.28125 -21.8671875 3.28125 -20.33203125 1.9453125 C-19.83574219 1.50445312 -19.33945313 1.06359375 -18.828125 0.609375 C-13.31344746 -3.35056213 -6.0082877 -2.71731605 0 0 Z " fill="#0937C8" transform="translate(110.33203125,69.0546875)"/>
<path d="M0 0 C4.84916362 2.64585432 8.0999607 6.04988209 9.875 11.375 C10.60769588 18.13742264 10.05681409 23.83761315 5.875 29.375 C-0.4718817 34.42659972 -6.2161762 35.1908099 -14.125 34.375 C-19.53760256 31.7179042 -24.13431956 27.18115128 -26.125 21.375 C-26.70810159 14.26116062 -25.51842077 9.30029206 -20.875 3.625 C-14.44303823 -1.63751417 -7.72072711 -3.4620146 0 0 Z " fill="#0534C7" transform="translate(170.125,68.625)"/>
<path d="M0 0 C4.64473982 -0.07416067 9.28913499 -0.12860615 13.93432617 -0.16479492 C15.51446536 -0.17988094 17.09456269 -0.2003525 18.67456055 -0.22631836 C20.94590585 -0.26271126 23.21669759 -0.27972762 25.48828125 -0.29296875 C26.54780754 -0.31619453 26.54780754 -0.31619453 27.6287384 -0.33988953 C30.47976509 -0.34086767 32.54977808 -0.26716881 35.03198242 1.20581055 C36 3 36 3 35.90356445 5.38305664 C34.86432075 8.39296025 33.50743721 10.36669959 31.54296875 12.87109375 C30.84236328 13.77537109 30.14175781 14.67964844 29.41992188 15.61132812 C28.68322266 16.54396484 27.94652344 17.47660156 27.1875 18.4375 C25.74191374 20.28913538 24.29785968 22.14196817 22.85546875 23.99609375 C22.21246826 24.81263428 21.56946777 25.6291748 20.90698242 26.47045898 C18.82507577 29.23203047 16.91838172 32.12242742 15 35 C21.93 35.33 28.86 35.66 36 36 C36 38.97 36 41.94 36 45 C31.19451403 45.04936883 26.38917506 45.08570443 21.58349609 45.10986328 C19.94805328 45.11993254 18.31262851 45.13358881 16.67724609 45.15087891 C14.3290563 45.17508705 11.98110412 45.18647357 9.6328125 45.1953125 C8.53273361 45.21079636 8.53273361 45.21079636 7.41043091 45.22659302 C5.60537303 45.22699368 3.8009217 45.12212755 2 45 C0 43 0 43 -0.30102539 40.62963867 C0.05431564 37.52552009 0.85624952 36.32826263 2.81640625 33.92578125 C3.41308105 33.17989746 4.00975586 32.43401367 4.62451172 31.66552734 C5.26404785 30.88902832 5.90358398 30.1125293 6.5625 29.3125 C7.84943257 27.70845479 9.13460444 26.10299528 10.41796875 24.49609375 C11.03720215 23.72507324 11.65643555 22.95405273 12.29443359 22.15966797 C15.39357196 18.23539399 18.19536464 14.14017601 21 10 C14.07 9.67 7.14 9.34 0 9 C0 6.03 0 3.06 0 0 Z " fill="#0534C8" transform="translate(45,58)"/>
<path d="M0 0 C3.3 0 6.6 0 10 0 C11.3376655 3.12321008 12.67029736 6.24840189 14 9.375 C14.3815625 10.26445313 14.763125 11.15390625 15.15625 12.0703125 C15.69765625 13.34648437 15.69765625 13.34648437 16.25 14.6484375 C16.58515625 15.43395996 16.9203125 16.21948242 17.265625 17.02880859 C18 19 18 19 18 21 C18.66 21 19.32 21 20 21 C20.37125 19.7625 20.7425 18.525 21.125 17.25 C23.12333111 11.19708401 26.05301842 5.63645991 29 0 C31.97 0 34.94 0 38 0 C35.9636985 6.34645976 33.64501194 12.46819748 31.0234375 18.59375 C30.65272125 19.4664856 30.282005 20.33922119 29.90005493 21.23840332 C29.12352954 23.06427463 28.34530059 24.88942231 27.56542969 26.71386719 C26.36719469 29.51826788 25.17541913 32.32535134 23.984375 35.1328125 C23.22694026 36.91161924 22.46914106 38.69027083 21.7109375 40.46875 C21.1750148 41.73108459 21.1750148 41.73108459 20.62826538 43.0189209 C18.11547307 48.88452693 18.11547307 48.88452693 17 50 C15.48071962 50.07179964 13.95832518 50.08392007 12.4375 50.0625 C11.61121094 50.05347656 10.78492188 50.04445312 9.93359375 50.03515625 C9.29550781 50.02355469 8.65742188 50.01195312 8 50 C8.56163178 45.64735371 10.26138128 42.22719953 12.2578125 38.37890625 C13.91259731 33.07488548 11.34184165 27.99038839 9.27734375 23.10546875 C9.01240616 22.47264481 8.74746857 21.83982086 8.47450256 21.18782043 C7.63484237 19.18512294 6.78658703 17.18621665 5.9375 15.1875 C5.08648901 13.17027988 4.2372857 11.15231888 3.38978577 9.13362122 C2.62514657 7.31445815 1.85553908 5.49738578 1.08569336 3.68041992 C0 1 0 1 0 0 Z " fill="#06CF6B" transform="translate(124,117)"/>
<path d="M0 0 C2.97 0 5.94 0 9 0 C9 11.88 9 23.76 9 36 C10.32 36 11.64 36 13 36 C13 38.97 13 41.94 13 45 C8.86001651 45.32470459 6.66000999 45.4304413 3.125 43.125 C0.15999877 40.15999877 0.01510889 39.5066838 -0.11352539 35.19287109 C-0.11336673 33.55305137 -0.10769881 31.91322648 -0.09765625 30.2734375 C-0.0962413 29.41062164 -0.09482635 28.54780579 -0.09336853 27.65884399 C-0.08776188 24.8975277 -0.07520827 22.13629188 -0.0625 19.375 C-0.05748586 17.5052095 -0.0529228 15.63541774 -0.04882812 13.765625 C-0.03779029 9.17705223 -0.0205212 4.58853977 0 0 Z " fill="#0A37C8" transform="translate(129,58)"/>
<path d="M0 0 C2.69990662 1.79993774 4.5418865 3.083773 6 6 C6.43023798 9.87214182 6.31669086 11.52496371 4.125 14.8125 C1.42055063 17.59649199 0.57733296 17.93464155 -3.3125 18.375 C-7 18 -7 18 -9.9375 16 C-12.21876473 12.68179675 -12.81273098 10.88919871 -12.55078125 6.9375 C-10.89487619 1.11247227 -5.51629276 -1.05631138 0 0 Z " fill="#F7FCFA" transform="translate(66,126)"/>
<path d="M0 0 C4.56589388 0.51689365 6.30570478 1.9386626 9.3125 5.375 C10.12394575 8.22944748 10.06858333 10.51227226 9.3125 13.375 C7.31897547 16.36528679 5.90994505 17.95309415 2.375 18.88671875 C0.13138086 19.07793629 -1.51943733 18.99132427 -3.6875 18.375 C-6.97576203 15.49777073 -8.43681432 13.60335983 -9.3125 9.3125 C-8.48380875 5.41765113 -6.66803881 3.91936239 -3.6875 1.375 C-2.6875 0.375 -2.6875 0.375 0 0 Z " fill="#F7F8FB" transform="translate(161.6875,75.625)"/>
<path d="M0 0 C3.34265205 1.20706879 3.94704566 1.92056849 6 5 C6.55377603 9.90487343 6.75639171 11.89979388 3.9375 16 C0.22192774 18.52975133 -1.5882483 18.7878128 -6 18 C-8.91963173 16.01216563 -10.61102978 14.5685303 -11.48046875 11.0625 C-11.76091862 7.06040455 -11.24214679 5.34185429 -8.875 2 C-5.50172663 -0.34662495 -4.02250703 -0.59909679 0 0 Z " fill="#F9FDFB" transform="translate(105,126)"/>
<path d="M0 0 C3.73152858 1.17474048 5.26415485 1.76958156 7.375 5.0625 C8.0849846 10.0323922 8.16617716 11.91169686 5.3125 16.0625 C1.61227467 18.58180235 -0.2281656 18.7691341 -4.625 18.0625 C-7.5625 16.625 -7.5625 16.625 -9.625 14.0625 C-10.40649882 10.88914114 -10.41388598 8.23494862 -9.625 5.0625 C-7.20101747 1.28142866 -4.50490001 0.07767069 0 0 Z " fill="#FBFCFD" transform="translate(103.625,75.9375)"/>
</svg>
